<svg xmlns="http://www.w3.org/2000/svg" xmlns:xlink="http://www.w3.org/1999/xlink" id="processonSvg1000" viewBox="77.0 71.0 835.0 664.0" width="835.0" height="664.0"><defs id="ProcessOnDefs1001"><marker id="ProcessOnMarker1021" markerUnits="userSpaceOnUse" orient="auto" markerWidth="16.23606797749979" markerHeight="10.550836550532098" viewBox="-1.0 -1.3763819204711736 16.23606797749979 10.550836550532098" refX="-1.0" refY="3.8990363547948754"><path id="ProcessOnPath1022" d="M12.0 3.8990363547948754L0.0 7.798072709589751V0.0Z" stroke="#323232" stroke-width="2.0" fill="#323232" transform="matrix(1.0,0.0,0.0,1.0,0.0,0.0)"/></marker><marker id="ProcessOnMarker1033" markerUnits="userSpaceOnUse" orient="auto" markerWidth="16.23606797749979" markerHeight="10.550836550532098" viewBox="-1.0 -1.3763819204711736 16.23606797749979 10.550836550532098" refX="-1.0" refY="3.8990363547948754"><path id="ProcessOnPath1034" d="M12.0 3.8990363547948754L0.0 7.798072709589751V0.0Z" stroke="#323232" stroke-width="2.0" fill="#323232" transform="matrix(1.0,0.0,0.0,1.0,0.0,0.0)"/></marker></defs><g id="ProcessOnG1002"><path id="ProcessOnPath1003" d="M77.0 71.0H912.0V735.0H77.0V71.0Z" fill="none"/><g id="ProcessOnG1004"><g id="ProcessOnG1005" transform="matrix(1.0,0.0,0.0,1.0,97.0,159.0)" opacity="1.0"><path id="ProcessOnPath1006" d="M0.0 0.0L795.0 0.0L795.0 556.0L0.0 556.0Z" stroke="#323232" stroke-width="2.0" stroke-dasharray="none" opacity="1.0" fill="#ffffff"/></g><g id="ProcessOnG1007" transform="matrix(1.0,0.0,0.0,1.0,215.0,91.0)" opacity="1.0"><path id="ProcessOnPath1008" d="M0.0 0.0L540.0 0.0L540.0 59.0L0.0 59.0Z" stroke="none" stroke-width="0.0" stroke-dasharray="none" opacity="1.0" fill="none"/><g id="ProcessOnG1009" transform="matrix(1.0,0.0,0.0,1.0,0.0,17.0)"><text id="ProcessOnText1010" fill="#000000" font-size="20" x="269.0" y="20.5" font-family="微软雅黑" font-weight="normal" font-style="normal" text-decoration="none" family="微软雅黑" text-anchor="middle" size="20">BehaviorRoot</text></g></g><g id="ProcessOnG1011" transform="matrix(1.0,0.0,0.0,1.0,393.0,180.0)" opacity="1.0"><path id="ProcessOnPath1012" d="M0.0 86.5C0.0 -28.833333333333332 173.0 -28.833333333333332 173.0 86.5C173.0 201.83333333333334 0.0 201.83333333333334 0.0 86.5Z" stroke="#323232" stroke-width="2.0" stroke-dasharray="none" opacity="1.0" fill="#ffffff"/><g id="ProcessOnG1013" transform="matrix(1.0,0.0,0.0,1.0,10.0,70.875)"><text id="ProcessOnText1014" fill="#000000" font-size="25" x="75.5" y="25.625" font-family="微软雅黑" font-weight="normal" font-style="normal" text-decoration="none" family="微软雅黑" text-anchor="middle" size="25">BehaviorIdle</text></g></g><g id="ProcessOnG1015" transform="matrix(1.0,0.0,0.0,1.0,393.0,518.0)" opacity="1.0"><path id="ProcessOnPath1016" d="M0.0 89.5C0.0 -29.833333333333332 178.5 -29.833333333333332 178.5 89.5C178.5 208.83333333333334 0.0 208.83333333333334 0.0 89.5Z" stroke="#323232" stroke-width="2.0" stroke-dasharray="none" opacity="1.0" fill="#ffffff"/><g id="ProcessOnG1017" transform="matrix(1.0,0.0,0.0,1.0,10.0,73.875)"><text id="ProcessOnText1018" fill="#000000" font-size="25" x="78.25" y="25.625" font-family="微软雅黑" font-weight="normal" font-style="normal" text-decoration="none" family="微软雅黑" text-anchor="middle" size="25">BehaviorSkill</text></g></g><g id="ProcessOnG1019"><path id="ProcessOnPath1020" d="M423.57115043874614 333.9358222275241L423.57115043874614 427.96791111376206L423.57115043874614 427.96791111376206L423.57115043874614 506.7639320225002" stroke="#323232" stroke-width="2.0" stroke-dasharray="none" fill="none" marker-end="url(#ProcessOnMarker1021)"/></g><g id="ProcessOnG1023" transform="matrix(1.0,0.0,0.0,1.0,271.0,407.0)" opacity="1.0"><path id="ProcessOnPath1024" d="M0.0 0.0L144.0 0.0L144.0 44.0L0.0 44.0Z" stroke="none" stroke-width="0.0" stroke-dasharray="none" opacity="1.0" fill="none"/><g id="ProcessOnG1025" transform="matrix(1.0,0.0,0.0,1.0,0.0,9.5)"><text id="ProcessOnText1026" fill="#000000" font-size="20" x="71.0" y="20.5" font-family="微软雅黑" font-weight="normal" font-style="normal" text-decoration="none" family="微软雅黑" text-anchor="middle" size="20">StateEventSkill</text></g></g><g id="ProcessOnG1027" transform="matrix(1.0,0.0,0.0,1.0,534.0,404.0)" opacity="1.0"><path id="ProcessOnPath1028" d="M0.0 0.0L156.0 0.0L156.0 42.0L0.0 42.0Z" stroke="none" stroke-width="0.0" stroke-dasharray="none" opacity="1.0" fill="none"/><g id="ProcessOnG1029" transform="matrix(1.0,0.0,0.0,1.0,0.0,8.5)"><text id="ProcessOnText1030" fill="#000000" font-size="20" x="77.0" y="20.5" font-family="微软雅黑" font-weight="normal" font-style="normal" text-decoration="none" family="微软雅黑" text-anchor="middle" size="20">StateEventEnd</text></g></g><g id="ProcessOnG1031"><path id="ProcessOnPath1032" d="M511.31595971334866 522.8793852415719L511.31595971334866 435.0904610688211L511.28989928337165 435.0904610688211L511.28989928337165 362.5376048735702" stroke="#323232" stroke-width="2.0" stroke-dasharray="none" fill="none" marker-end="url(#ProcessOnMarker1033)"/></g></g></g></svg>