<svg xmlns="http://www.w3.org/2000/svg" xmlns:xlink="http://www.w3.org/1999/xlink" id="processonSvg1000" viewBox="91.0 28.0 608.5 511.0" width="608.5" height="511.0"><defs id="ProcessOnDefs1001"/><g id="ProcessOnG1002"><path id="ProcessOnPath1003" d="M91.0 28.0H699.5V539.0H91.0V28.0Z" fill="none"/><g id="ProcessOnG1004"><g id="ProcessOnG1005" transform="matrix(1.0,0.0,0.0,1.0,280.5,102.0)" opacity="1.0"><path id="ProcessOnPath1006" d="M0.0 0.0L399.0 0.0L399.0 417.0L0.0 417.0Z" stroke="#323232" stroke-width="2.0" stroke-dasharray="none" opacity="1.0" fill="#ffffff"/></g><g id="ProcessOnG1007" transform="matrix(1.0,0.0,0.0,1.0,290.0,48.0)" opacity="1.0"><path id="ProcessOnPath1008" d="M0.0 0.0L380.0 0.0L380.0 44.0L0.0 44.0Z" stroke="none" stroke-width="0.0" stroke-dasharray="none" opacity="1.0" fill="none"/><g id="ProcessOnG1009" transform="matrix(1.0,0.0,0.0,1.0,0.0,3.25)"><text id="ProcessOnText1010" fill="#000000" font-size="30" x="189.0" y="30.75" font-family="微软雅黑" font-weight="normal" font-style="normal" text-decoration="none" family="微软雅黑" text-anchor="middle" size="30">Buff</text></g></g><g id="ProcessOnG1011" transform="matrix(1.0,0.0,0.0,1.0,337.0,119.0)" opacity="1.0"><path id="ProcessOnPath1012" d="M0.0 0.0L300.0 0.0L300.0 107.0L0.0 107.0Z" stroke="#323232" stroke-width="2.0" stroke-dasharray="none" opacity="1.0" fill="#ffffff"/><g id="ProcessOnG1013" transform="matrix(1.0,0.0,0.0,1.0,10.0,16.0)"><text id="ProcessOnText1014" fill="#000000" font-size="30" x="139.0" y="30.75" font-family="微软雅黑" font-weight="normal" font-style="normal" text-decoration="none" family="微软雅黑" text-anchor="middle" size="30">击飞击退</text><text id="ProcessOnText1015" fill="#000000" font-size="30" x="139.0" y="68.25" font-family="微软雅黑" font-weight="normal" font-style="normal" text-decoration="none" family="微软雅黑" text-anchor="middle" size="30">TargetMove</text></g></g><g id="ProcessOnG1016" transform="matrix(1.0,0.0,0.0,1.0,337.0,300.0)" opacity="1.0"><path id="ProcessOnPath1017" d="M0.0 0.0L300.0 0.0L300.0 107.0L0.0 107.0Z" stroke="#323232" stroke-width="2.0" stroke-dasharray="none" opacity="1.0" fill="#ffffff"/><g id="ProcessOnG1018" transform="matrix(1.0,0.0,0.0,1.0,10.0,34.75)"><text id="ProcessOnText1019" fill="#000000" font-size="30" x="139.0" y="30.75" font-family="微软雅黑" font-weight="normal" font-style="normal" text-decoration="none" family="微软雅黑" text-anchor="middle" size="30">眩晕</text></g></g><g id="ProcessOnG1020" transform="matrix(1.0,0.0,0.0,1.0,114.0,134.0)" opacity="1.0"><path id="ProcessOnPath1021" d="M0.0 21.285L127.75 21.285L127.75 0.0L160.0 32.25L127.75 64.5L127.75 43.215L0.0 43.215L0.0 21.285Z" stroke="#323232" stroke-width="2.0" stroke-dasharray="none" opacity="1.0" fill="#ffffff"/></g><g id="ProcessOnG1022" transform="matrix(1.0,0.0,0.0,1.0,128.0,124.0)" opacity="1.0"><path id="ProcessOnPath1023" d="M0.0 0.0L106.0 0.0L106.0 24.0L0.0 24.0Z" stroke="none" stroke-width="0.0" stroke-dasharray="none" opacity="1.0" fill="none"/><g id="ProcessOnG1024" transform="matrix(1.0,0.0,0.0,1.0,0.0,3.875)"><text id="ProcessOnText1025" fill="#000000" font-size="13" x="52.0" y="13.325" font-family="微软雅黑" font-weight="normal" font-style="normal" text-decoration="none" family="微软雅黑" text-anchor="middle" size="13">击飞击退</text></g></g><g id="ProcessOnG1026" transform="matrix(1.0,0.0,0.0,1.0,111.0,329.0)" opacity="1.0"><path id="ProcessOnPath1027" d="M0.0 21.285L127.75 21.285L127.75 0.0L160.0 32.25L127.75 64.5L127.75 43.215L0.0 43.215L0.0 21.285Z" stroke="#323232" stroke-width="2.0" stroke-dasharray="none" opacity="1.0" fill="#ffffff"/></g><g id="ProcessOnG1028" transform="matrix(1.0,0.0,0.0,1.0,125.0,319.0)" opacity="1.0"><path id="ProcessOnPath1029" d="M0.0 0.0L106.0 0.0L106.0 24.0L0.0 24.0Z" stroke="none" stroke-width="0.0" stroke-dasharray="none" opacity="1.0" fill="none"/><g id="ProcessOnG1030" transform="matrix(1.0,0.0,0.0,1.0,0.0,3.875)"><text id="ProcessOnText1031" fill="#000000" font-size="13" x="52.0" y="13.325" font-family="微软雅黑" font-weight="normal" font-style="normal" text-decoration="none" family="微软雅黑" text-anchor="middle" size="13">眩晕</text></g></g></g></g></svg>