<svg xmlns="http://www.w3.org/2000/svg" xmlns:xlink="http://www.w3.org/1999/xlink" id="processonSvg1000" viewBox="77.0 42.0 1117.0 868.0" width="1117.0" height="868.0"><defs id="ProcessOnDefs1001"><marker id="ProcessOnMarker1026" markerUnits="userSpaceOnUse" orient="auto" markerWidth="16.23606797749979" markerHeight="10.550836550532098" viewBox="-1.0 -1.3763819204711736 16.23606797749979 10.550836550532098" refX="-1.0" refY="3.8990363547948754"><path id="ProcessOnPath1027" d="M12.0 3.8990363547948754L0.0 7.798072709589751V0.0Z" stroke="#323232" stroke-width="2.0" fill="#323232" transform="matrix(1.0,0.0,0.0,1.0,0.0,0.0)"/></marker><marker id="ProcessOnMarker1034" markerUnits="userSpaceOnUse" orient="auto" markerWidth="16.23606797749979" markerHeight="10.550836550532098" viewBox="-1.0 -1.3763819204711736 16.23606797749979 10.550836550532098" refX="-1.0" refY="3.8990363547948754"><path id="ProcessOnPath1035" d="M12.0 3.8990363547948754L0.0 7.798072709589751V0.0Z" stroke="#323232" stroke-width="2.0" fill="#323232" transform="matrix(1.0,0.0,0.0,1.0,0.0,0.0)"/></marker><marker id="ProcessOnMarker1042" markerUnits="userSpaceOnUse" orient="auto" markerWidth="16.23606797749979" markerHeight="10.550836550532098" viewBox="-1.0 -1.3763819204711736 16.23606797749979 10.550836550532098" refX="-1.0" refY="3.8990363547948754"><path id="ProcessOnPath1043" d="M12.0 3.8990363547948754L0.0 7.798072709589751V0.0Z" stroke="#323232" stroke-width="2.0" fill="#323232" transform="matrix(1.0,0.0,0.0,1.0,0.0,0.0)"/></marker><marker id="ProcessOnMarker1050" markerUnits="userSpaceOnUse" orient="auto" markerWidth="16.23606797749979" markerHeight="10.550836550532098" viewBox="-1.0 -1.3763819204711736 16.23606797749979 10.550836550532098" refX="-1.0" refY="3.8990363547948754"><path id="ProcessOnPath1051" d="M12.0 3.8990363547948754L0.0 7.798072709589751V0.0Z" stroke="#323232" stroke-width="2.0" fill="#323232" transform="matrix(1.0,0.0,0.0,1.0,0.0,0.0)"/></marker><marker id="ProcessOnMarker1058" markerUnits="userSpaceOnUse" orient="auto" markerWidth="16.23606797749979" markerHeight="10.550836550532098" viewBox="-1.0 -1.3763819204711736 16.23606797749979 10.550836550532098" refX="-1.0" refY="3.8990363547948754"><path id="ProcessOnPath1059" d="M12.0 3.8990363547948754L0.0 7.798072709589751V0.0Z" stroke="#323232" stroke-width="2.0" fill="#323232" transform="matrix(1.0,0.0,0.0,1.0,0.0,0.0)"/></marker><marker id="ProcessOnMarker1066" markerUnits="userSpaceOnUse" orient="auto" markerWidth="16.23606797749979" markerHeight="10.550836550532098" viewBox="-1.0 -1.3763819204711736 16.23606797749979 10.550836550532098" refX="-1.0" refY="3.8990363547948754"><path id="ProcessOnPath1067" d="M12.0 3.8990363547948754L0.0 7.798072709589751V0.0Z" stroke="#323232" stroke-width="2.0" fill="#323232" transform="matrix(1.0,0.0,0.0,1.0,0.0,0.0)"/></marker></defs><g id="ProcessOnG1002"><path id="ProcessOnPath1003" d="M77.0 42.0H1194.0V910.0H77.0V42.0Z" fill="none"/><g id="ProcessOnG1004"><g id="ProcessOnG1005" transform="matrix(1.0,0.0,0.0,1.0,97.0,120.0)" opacity="1.0"><path id="ProcessOnPath1006" d="M0.0 0.0L1077.0 0.0L1077.0 770.0L0.0 770.0Z" stroke="#323232" stroke-width="2.0" stroke-dasharray="none" opacity="1.0" fill="#ffffff"/></g><g id="ProcessOnG1007" transform="matrix(1.0,0.0,0.0,1.0,575.0,180.0)" opacity="1.0"><path id="ProcessOnPath1008" d="M0.0 76.0C0.0 -25.333333333333332 152.0 -25.333333333333332 152.0 76.0C152.0 177.33333333333334 0.0 177.33333333333334 0.0 76.0Z" stroke="#323232" stroke-width="2.0" stroke-dasharray="none" opacity="1.0" fill="#ffffff"/><g id="ProcessOnG1009" transform="matrix(1.0,0.0,0.0,1.0,10.0,57.25)"><text id="ProcessOnText1010" fill="#000000" font-size="30" x="65.0" y="30.75" font-family="微软雅黑" font-weight="normal" font-style="normal" text-decoration="none" family="微软雅黑" text-anchor="middle" size="30">Idle</text></g></g><g id="ProcessOnG1011" transform="matrix(1.0,0.0,0.0,1.0,285.0,638.0)" opacity="1.0"><path id="ProcessOnPath1012" d="M0.0 76.0C0.0 -25.333333333333332 152.0 -25.333333333333332 152.0 76.0C152.0 177.33333333333334 0.0 177.33333333333334 0.0 76.0Z" stroke="#323232" stroke-width="2.0" stroke-dasharray="none" opacity="1.0" fill="#ffffff"/><g id="ProcessOnG1013" transform="matrix(1.0,0.0,0.0,1.0,10.0,38.5)"><text id="ProcessOnText1014" fill="#000000" font-size="30" x="65.0" y="30.75" font-family="微软雅黑" font-weight="normal" font-style="normal" text-decoration="none" family="微软雅黑" text-anchor="middle" size="30">NoneIdl</text><text id="ProcessOnText1015" fill="#000000" font-size="30" x="65.0" y="68.25" font-family="微软雅黑" font-weight="normal" font-style="normal" text-decoration="none" family="微软雅黑" text-anchor="middle" size="30">e</text></g></g><g id="ProcessOnG1016" transform="matrix(1.0,0.0,0.0,1.0,892.0,638.0)" opacity="1.0"><path id="ProcessOnPath1017" d="M0.0 76.0C0.0 -25.333333333333332 152.0 -25.333333333333332 152.0 76.0C152.0 177.33333333333334 0.0 177.33333333333334 0.0 76.0Z" stroke="#323232" stroke-width="2.0" stroke-dasharray="none" opacity="1.0" fill="#ffffff"/><g id="ProcessOnG1018" transform="matrix(1.0,0.0,0.0,1.0,10.0,57.25)"><text id="ProcessOnText1019" fill="#000000" font-size="30" x="65.0" y="30.75" font-family="微软雅黑" font-weight="normal" font-style="normal" text-decoration="none" family="微软雅黑" text-anchor="middle" size="30">Move</text></g></g><g id="ProcessOnG1020" transform="matrix(1.0,0.0,0.0,1.0,300.0,62.0)" opacity="1.0"><path id="ProcessOnPath1021" d="M0.0 0.0L658.0 0.0L658.0 44.0L0.0 44.0Z" stroke="none" stroke-width="0.0" stroke-dasharray="none" opacity="1.0" fill="none"/><g id="ProcessOnG1022" transform="matrix(1.0,0.0,0.0,1.0,0.0,3.25)"><text id="ProcessOnText1023" fill="#000000" font-size="30" x="328.0" y="30.75" font-family="微软雅黑" font-weight="normal" font-style="normal" text-decoration="none" family="微软雅黑" text-anchor="middle" size="30">Locomotion</text></g></g><g id="ProcessOnG1024"><path id="ProcessOnPath1025" d="M727.0 256.0L968.0 256.0L968.0 622.7639320225002" stroke="#323232" stroke-width="2.0" stroke-dasharray="none" fill="none" marker-end="url(#ProcessOnMarker1026)"/></g><g id="ProcessOnG1028" transform="matrix(1.0,0.0,0.0,1.0,976.0,376.0)" opacity="1.0"><path id="ProcessOnPath1029" d="M0.0 0.0L169.0 0.0L169.0 58.0L0.0 58.0Z" stroke="none" stroke-width="0.0" stroke-dasharray="none" opacity="1.0" fill="none"/><g id="ProcessOnG1030" transform="matrix(1.0,0.0,0.0,1.0,0.0,16.5)"><text id="ProcessOnText1031" fill="#000000" font-size="20" x="83.5" y="20.5" font-family="微软雅黑" font-weight="normal" font-style="normal" text-decoration="none" family="微软雅黑" text-anchor="middle" size="20">StateEventMove</text></g></g><g id="ProcessOnG1032"><path id="ProcessOnPath1033" d="M575.0 256.0L349.34729635533387 256.0L349.34729635533387 623.7335475285246" stroke="#323232" stroke-width="2.0" stroke-dasharray="none" fill="none" marker-end="url(#ProcessOnMarker1034)"/></g><g id="ProcessOnG1036" transform="matrix(1.0,0.0,0.0,1.0,147.0,362.0)" opacity="1.0"><path id="ProcessOnPath1037" d="M0.0 0.0L199.0 0.0L199.0 55.0L0.0 55.0Z" stroke="none" stroke-width="0.0" stroke-dasharray="none" opacity="1.0" fill="none"/><g id="ProcessOnG1038" transform="matrix(1.0,0.0,0.0,1.0,0.0,15.0)"><text id="ProcessOnText1039" fill="#000000" font-size="20" x="98.5" y="20.5" font-family="微软雅黑" font-weight="normal" font-style="normal" text-decoration="none" family="微软雅黑" text-anchor="middle" size="20">StateEventNoneIdle</text></g></g><g id="ProcessOnG1040"><path id="ProcessOnPath1041" d="M931.0 639.0L931.0 281.6058589967203L737.6582196319985 281.6058589967203" stroke="#323232" stroke-width="2.0" stroke-dasharray="none" fill="none" marker-end="url(#ProcessOnMarker1042)"/></g><g id="ProcessOnG1044" transform="matrix(1.0,0.0,0.0,1.0,756.0,362.0)" opacity="1.0"><path id="ProcessOnPath1045" d="M0.0 0.0L169.0 0.0L169.0 58.0L0.0 58.0Z" stroke="none" stroke-width="0.0" stroke-dasharray="none" opacity="1.0" fill="none"/><g id="ProcessOnG1046" transform="matrix(1.0,0.0,0.0,1.0,0.0,16.5)"><text id="ProcessOnText1047" fill="#000000" font-size="20" x="83.5" y="20.5" font-family="微软雅黑" font-weight="normal" font-style="normal" text-decoration="none" family="微软雅黑" text-anchor="middle" size="20">StateEventStop</text></g></g><g id="ProcessOnG1048"><path id="ProcessOnPath1049" d="M908.8302222155949 763.7860619515673L667.9151111077974 763.7860619515673L667.9151111077974 763.7860619515673L442.2360679774998 763.7860619515673" stroke="#323232" stroke-width="2.0" stroke-dasharray="none" fill="none" marker-end="url(#ProcessOnMarker1050)"/></g><g id="ProcessOnG1052" transform="matrix(1.0,0.0,0.0,1.0,575.0,779.0)" opacity="1.0"><path id="ProcessOnPath1053" d="M0.0 0.0L197.0 0.0L197.0 53.0L0.0 53.0Z" stroke="none" stroke-width="0.0" stroke-dasharray="none" opacity="1.0" fill="none"/><g id="ProcessOnG1054" transform="matrix(1.0,0.0,0.0,1.0,0.0,14.0)"><text id="ProcessOnText1055" fill="#000000" font-size="20" x="97.5" y="20.5" font-family="微软雅黑" font-weight="normal" font-style="normal" text-decoration="none" family="微软雅黑" text-anchor="middle" size="20">StateEventNoneIdle</text></g></g><g id="ProcessOnG1056"><path id="ProcessOnPath1057" d="M389.31595971334866 643.8793852415719L389.31595971334866 273.7844627563315L561.6575862935856 273.7844627563315" stroke="#323232" stroke-width="2.0" stroke-dasharray="none" fill="none" marker-end="url(#ProcessOnMarker1058)"/></g><g id="ProcessOnG1060" transform="matrix(1.0,0.0,0.0,1.0,394.0,403.0)" opacity="1.0"><path id="ProcessOnPath1061" d="M0.0 0.0L199.0 0.0L199.0 55.0L0.0 55.0Z" stroke="none" stroke-width="0.0" stroke-dasharray="none" opacity="1.0" fill="none"/><g id="ProcessOnG1062" transform="matrix(1.0,0.0,0.0,1.0,0.0,15.0)"><text id="ProcessOnText1063" fill="#000000" font-size="20" x="98.5" y="20.5" font-family="微软雅黑" font-weight="normal" font-style="normal" text-decoration="none" family="微软雅黑" text-anchor="middle" size="20">StateEventEndToIdle</text></g></g><g id="ProcessOnG1064"><path id="ProcessOnPath1065" d="M436.075961234939 701.8682408883346L660.0379806174694 701.8682408883346L660.0379806174694 701.8682408883346L868.7639320225002 701.8682408883346" stroke="#323232" stroke-width="2.0" stroke-dasharray="none" fill="none" marker-end="url(#ProcessOnMarker1066)"/></g><g id="ProcessOnG1068" transform="matrix(1.0,0.0,0.0,1.0,551.5,638.0)" opacity="1.0"><path id="ProcessOnPath1069" d="M0.0 0.0L229.5 0.0L229.5 52.0L0.0 52.0Z" stroke="none" stroke-width="0.0" stroke-dasharray="none" opacity="1.0" fill="none"/><g id="ProcessOnG1070" transform="matrix(1.0,0.0,0.0,1.0,0.0,13.5)"><text id="ProcessOnText1071" fill="#000000" font-size="20" x="113.75" y="20.5" font-family="微软雅黑" font-weight="normal" font-style="normal" text-decoration="none" family="微软雅黑" text-anchor="middle" size="20">StateEventEndToMove</text></g></g></g></g></svg>