<svg xmlns="http://www.w3.org/2000/svg" xmlns:xlink="http://www.w3.org/1999/xlink" id="processonSvg1000" viewBox="164.0 48.0 846.0 620.0" width="846.0" height="620.0"><defs id="ProcessOnDefs1001"><marker id="ProcessOnMarker1019" markerUnits="userSpaceOnUse" orient="auto" markerWidth="16.23606797749979" markerHeight="10.550836550532098" viewBox="-1.0 -1.3763819204711736 16.23606797749979 10.550836550532098" refX="-1.0" refY="3.8990363547948754"><path id="ProcessOnPath1020" d="M12.0 3.8990363547948754L0.0 7.798072709589751V0.0Z" stroke="#323232" stroke-width="2.0" fill="#323232" transform="matrix(1.0,0.0,0.0,1.0,0.0,0.0)"/></marker><marker id="ProcessOnMarker1039" markerUnits="userSpaceOnUse" orient="auto" markerWidth="16.23606797749979" markerHeight="10.550836550532098" viewBox="-1.0 -1.3763819204711736 16.23606797749979 10.550836550532098" refX="-1.0" refY="3.8990363547948754"><path id="ProcessOnPath1040" d="M12.0 3.8990363547948754L0.0 7.798072709589751V0.0Z" stroke="#323232" stroke-width="2.0" fill="#323232" transform="matrix(1.0,0.0,0.0,1.0,0.0,0.0)"/></marker><marker id="ProcessOnMarker1043" markerUnits="userSpaceOnUse" orient="auto" markerWidth="16.23606797749979" markerHeight="10.550836550532098" viewBox="-1.0 -1.3763819204711736 16.23606797749979 10.550836550532098" refX="-1.0" refY="3.8990363547948754"><path id="ProcessOnPath1044" d="M12.0 3.8990363547948754L0.0 7.798072709589751V0.0Z" stroke="#323232" stroke-width="2.0" fill="#323232" transform="matrix(1.0,0.0,0.0,1.0,0.0,0.0)"/></marker><marker id="ProcessOnMarker1047" markerUnits="userSpaceOnUse" orient="auto" markerWidth="16.23606797749979" markerHeight="10.550836550532098" viewBox="-1.0 -1.3763819204711736 16.23606797749979 10.550836550532098" refX="-1.0" refY="3.8990363547948754"><path id="ProcessOnPath1048" d="M12.0 3.8990363547948754L0.0 7.798072709589751V0.0Z" stroke="#323232" stroke-width="2.0" fill="#323232" transform="matrix(1.0,0.0,0.0,1.0,0.0,0.0)"/></marker><marker id="ProcessOnMarker1051" markerUnits="userSpaceOnUse" orient="auto" markerWidth="16.23606797749979" markerHeight="10.550836550532098" viewBox="-1.0 -1.3763819204711736 16.23606797749979 10.550836550532098" refX="-1.0" refY="3.8990363547948754"><path id="ProcessOnPath1052" d="M12.0 3.8990363547948754L0.0 7.798072709589751V0.0Z" stroke="#323232" stroke-width="2.0" fill="#323232" transform="matrix(1.0,0.0,0.0,1.0,0.0,0.0)"/></marker><marker id="ProcessOnMarker1055" markerUnits="userSpaceOnUse" orient="auto" markerWidth="16.23606797749979" markerHeight="10.550836550532098" viewBox="-1.0 -1.3763819204711736 16.23606797749979 10.550836550532098" refX="-1.0" refY="3.8990363547948754"><path id="ProcessOnPath1056" d="M12.0 3.8990363547948754L0.0 7.798072709589751V0.0Z" stroke="#323232" stroke-width="2.0" fill="#323232" transform="matrix(1.0,0.0,0.0,1.0,0.0,0.0)"/></marker></defs><g id="ProcessOnG1002"><path id="ProcessOnPath1003" d="M164.0 48.0H1010.0V668.0H164.0V48.0Z" fill="none"/><g id="ProcessOnG1004"><g id="ProcessOnG1005" transform="matrix(1.0,0.0,0.0,1.0,184.0,481.0)" opacity="1.0"><path id="ProcessOnPath1006" d="M0.0 83.5C0.0 -27.833333333333332 167.0 -27.833333333333332 167.0 83.5C167.0 194.83333333333334 0.0 194.83333333333334 0.0 83.5Z" stroke="#323232" stroke-width="2.0" stroke-dasharray="none" opacity="1.0" fill="#ffffff"/><g id="ProcessOnG1007" transform="matrix(1.0,0.0,0.0,1.0,10.0,64.75)"><text id="ProcessOnText1008" fill="#000000" font-size="30" x="72.5" y="30.75" font-family="微软雅黑" font-weight="normal" font-style="normal" text-decoration="none" family="微软雅黑" text-anchor="middle" size="30">A</text></g></g><g id="ProcessOnG1009" transform="matrix(1.0,0.0,0.0,1.0,184.0,246.0)" opacity="1.0"><path id="ProcessOnPath1010" d="M0.0 83.5C0.0 -27.833333333333332 167.0 -27.833333333333332 167.0 83.5C167.0 194.83333333333334 0.0 194.83333333333334 0.0 83.5Z" stroke="#323232" stroke-width="2.0" stroke-dasharray="none" opacity="1.0" fill="#ffffff"/><g id="ProcessOnG1011" transform="matrix(1.0,0.0,0.0,1.0,10.0,64.75)"><text id="ProcessOnText1012" fill="#000000" font-size="30" x="72.5" y="30.75" font-family="微软雅黑" font-weight="normal" font-style="normal" text-decoration="none" family="微软雅黑" text-anchor="middle" size="30">B</text></g></g><g id="ProcessOnG1013" transform="matrix(1.0,0.0,0.0,1.0,712.0,264.0)" opacity="1.0"><path id="ProcessOnPath1014" d="M0.0 0.0L278.0 0.0L278.0 131.0L0.0 131.0Z" stroke="#323232" stroke-width="2.0" stroke-dasharray="none" opacity="1.0" fill="#ffffff"/><g id="ProcessOnG1015" transform="matrix(1.0,0.0,0.0,1.0,10.0,57.375)"><text id="ProcessOnText1016" fill="#000000" font-size="13" x="128.0" y="13.325" font-family="微软雅黑" font-weight="normal" font-style="normal" text-decoration="none" family="微软雅黑" text-anchor="middle" size="13">Server</text></g></g><g id="ProcessOnG1017"><path id="ProcessOnPath1018" d="M351.0 564.5L851.0 564.5L851.0 410.2360679774998" stroke="#323232" stroke-width="2.0" stroke-dasharray="none" fill="none" marker-end="url(#ProcessOnMarker1019)"/></g><g id="ProcessOnG1021" transform="matrix(1.0,0.0,0.0,1.0,411.0,519.0)" opacity="1.0"><path id="ProcessOnPath1022" d="M0.0 0.0L289.0 0.0L289.0 33.0L0.0 33.0Z" stroke="none" stroke-width="0.0" stroke-dasharray="none" opacity="1.0" fill="none"/><g id="ProcessOnG1023" transform="matrix(1.0,0.0,0.0,1.0,0.0,8.375)"><text id="ProcessOnText1024" fill="#000000" font-size="13" x="143.5" y="13.325" font-family="微软雅黑" font-weight="normal" font-style="normal" text-decoration="none" family="微软雅黑" text-anchor="middle" size="13">请求对B上一个Buff</text></g></g><g id="ProcessOnG1025" transform="matrix(1.0,0.0,0.0,1.0,355.0,68.0)" opacity="1.0"><path id="ProcessOnPath1026" d="M0.0 54.5C0.0 -18.166666666666668 109.0 -18.166666666666668 109.0 54.5C109.0 127.16666666666667 0.0 127.16666666666667 0.0 54.5Z" stroke="#323232" stroke-width="2.0" stroke-dasharray="none" opacity="1.0" fill="#ffffff"/><g id="ProcessOnG1027" transform="matrix(1.0,0.0,0.0,1.0,10.0,35.75)"><text id="ProcessOnText1028" fill="#000000" font-size="30" x="43.5" y="30.75" font-family="微软雅黑" font-weight="normal" font-style="normal" text-decoration="none" family="微软雅黑" text-anchor="middle" size="30">C</text></g></g><g id="ProcessOnG1029" transform="matrix(1.0,0.0,0.0,1.0,497.0,68.0)" opacity="1.0"><path id="ProcessOnPath1030" d="M0.0 54.5C0.0 -18.166666666666668 109.0 -18.166666666666668 109.0 54.5C109.0 127.16666666666667 0.0 127.16666666666667 0.0 54.5Z" stroke="#323232" stroke-width="2.0" stroke-dasharray="none" opacity="1.0" fill="#ffffff"/><g id="ProcessOnG1031" transform="matrix(1.0,0.0,0.0,1.0,10.0,35.75)"><text id="ProcessOnText1032" fill="#000000" font-size="30" x="43.5" y="30.75" font-family="微软雅黑" font-weight="normal" font-style="normal" text-decoration="none" family="微软雅黑" text-anchor="middle" size="30">D</text></g></g><g id="ProcessOnG1033" transform="matrix(1.0,0.0,0.0,1.0,627.0,68.0)" opacity="1.0"><path id="ProcessOnPath1034" d="M0.0 54.5C0.0 -18.166666666666668 109.0 -18.166666666666668 109.0 54.5C109.0 127.16666666666667 0.0 127.16666666666667 0.0 54.5Z" stroke="#323232" stroke-width="2.0" stroke-dasharray="none" opacity="1.0" fill="#ffffff"/><g id="ProcessOnG1035" transform="matrix(1.0,0.0,0.0,1.0,10.0,35.75)"><text id="ProcessOnText1036" fill="#000000" font-size="30" x="43.5" y="30.75" font-family="微软雅黑" font-weight="normal" font-style="normal" text-decoration="none" family="微软雅黑" text-anchor="middle" size="30">E</text></g></g><g id="ProcessOnG1037"><path id="ProcessOnPath1038" d="M712.0 329.5L531.5 329.5L531.5 329.5L366.2360679774998 329.5" stroke="#323232" stroke-width="2.0" stroke-dasharray="none" fill="none" marker-end="url(#ProcessOnMarker1039)"/></g><g id="ProcessOnG1041"><path id="ProcessOnPath1042" d="M712.0 291.0L409.5 291.0L409.5 192.2360679774998" stroke="#323232" stroke-width="2.0" stroke-dasharray="none" fill="none" marker-end="url(#ProcessOnMarker1043)"/></g><g id="ProcessOnG1045"><path id="ProcessOnPath1046" d="M712.0 274.0L551.5 274.0L551.5 192.2360679774998" stroke="#323232" stroke-width="2.0" stroke-dasharray="none" fill="none" marker-end="url(#ProcessOnMarker1047)"/></g><g id="ProcessOnG1049"><path id="ProcessOnPath1050" d="M769.0 264.0L769.0 122.5L751.2360679774998 122.5" stroke="#323232" stroke-width="2.0" stroke-dasharray="none" fill="none" marker-end="url(#ProcessOnMarker1051)"/></g><g id="ProcessOnG1053"><path id="ProcessOnPath1054" d="M907.0 395.0L907.0 620.7860619515673L346.4058457619049 620.7860619515673" stroke="#323232" stroke-width="2.0" stroke-dasharray="none" fill="none" marker-end="url(#ProcessOnMarker1055)"/></g><g id="ProcessOnG1057" transform="matrix(1.0,0.0,0.0,1.0,495.0,592.0)" opacity="1.0"><path id="ProcessOnPath1058" d="M0.0 0.0L161.0 0.0L161.0 21.0L0.0 21.0Z" stroke="none" stroke-width="0.0" stroke-dasharray="none" opacity="1.0" fill="none"/><g id="ProcessOnG1059" transform="matrix(1.0,0.0,0.0,1.0,0.0,2.375)"><text id="ProcessOnText1060" fill="#000000" font-size="13" x="79.5" y="13.325" font-family="微软雅黑" font-weight="normal" font-style="normal" text-decoration="none" family="微软雅黑" text-anchor="middle" size="13">给B上一个Buff</text></g></g><g id="ProcessOnG1061" transform="matrix(1.0,0.0,0.0,1.0,429.0,308.0)" opacity="1.0"><path id="ProcessOnPath1062" d="M0.0 0.0L161.0 0.0L161.0 21.0L0.0 21.0Z" stroke="none" stroke-width="0.0" stroke-dasharray="none" opacity="1.0" fill="none"/><g id="ProcessOnG1063" transform="matrix(1.0,0.0,0.0,1.0,0.0,2.375)"><text id="ProcessOnText1064" fill="#000000" font-size="13" x="79.5" y="13.325" font-family="微软雅黑" font-weight="normal" font-style="normal" text-decoration="none" family="微软雅黑" text-anchor="middle" size="13">给B上一个Buff</text></g></g><g id="ProcessOnG1065" transform="matrix(1.0,0.0,0.0,1.0,424.0,264.0)" opacity="1.0"><path id="ProcessOnPath1066" d="M0.0 0.0L161.0 0.0L161.0 21.0L0.0 21.0Z" stroke="none" stroke-width="0.0" stroke-dasharray="none" opacity="1.0" fill="none"/><g id="ProcessOnG1067" transform="matrix(1.0,0.0,0.0,1.0,0.0,2.375)"><text id="ProcessOnText1068" fill="#000000" font-size="13" x="79.5" y="13.325" font-family="微软雅黑" font-weight="normal" font-style="normal" text-decoration="none" family="微软雅黑" text-anchor="middle" size="13">给B上一个Buff</text></g></g><g id="ProcessOnG1069" transform="matrix(1.0,0.0,0.0,1.0,575.0,243.0)" opacity="1.0"><path id="ProcessOnPath1070" d="M0.0 0.0L161.0 0.0L161.0 21.0L0.0 21.0Z" stroke="none" stroke-width="0.0" stroke-dasharray="none" opacity="1.0" fill="none"/><g id="ProcessOnG1071" transform="matrix(1.0,0.0,0.0,1.0,0.0,2.375)"><text id="ProcessOnText1072" fill="#000000" font-size="13" x="79.5" y="13.325" font-family="微软雅黑" font-weight="normal" font-style="normal" text-decoration="none" family="微软雅黑" text-anchor="middle" size="13">给B上一个Buff</text></g></g><g id="ProcessOnG1073" transform="matrix(1.0,0.0,0.0,1.0,744.0,195.0)" opacity="1.0"><path id="ProcessOnPath1074" d="M0.0 0.0L161.0 0.0L161.0 21.0L0.0 21.0Z" stroke="none" stroke-width="0.0" stroke-dasharray="none" opacity="1.0" fill="none"/><g id="ProcessOnG1075" transform="matrix(1.0,0.0,0.0,1.0,0.0,2.375)"><text id="ProcessOnText1076" fill="#000000" font-size="13" x="79.5" y="13.325" font-family="微软雅黑" font-weight="normal" font-style="normal" text-decoration="none" family="微软雅黑" text-anchor="middle" size="13">给B上一个Buff</text></g></g><g id="ProcessOnG1077" transform="matrix(1.0,0.0,0.0,1.0,751.0,351.0)" opacity="1.0"><path id="ProcessOnPath1078" d="M0.0 0.0L208.0 0.0L208.0 40.0L0.0 40.0Z" stroke="#323232" stroke-width="2.0" stroke-dasharray="none" opacity="1.0" fill="#ffffff"/><g id="ProcessOnG1079" transform="matrix(1.0,0.0,0.0,1.0,10.0,11.875)"><text id="ProcessOnText1080" fill="#000000" font-size="13" x="93.0" y="13.325" font-family="微软雅黑" font-weight="normal" font-style="normal" text-decoration="none" family="微软雅黑" text-anchor="middle" size="13">合法性检查</text></g></g></g></g></svg>