<svg xmlns="http://www.w3.org/2000/svg" xmlns:xlink="http://www.w3.org/1999/xlink" id="processonSvg1000" viewBox="33.0 9.0 816.0 433.0" width="816.0" height="433.0"><defs id="ProcessOnDefs1001"/><g id="ProcessOnG1002"><path id="ProcessOnPath1003" d="M33.0 9.0H849.0V442.0H33.0V9.0Z" fill="none"/><g id="ProcessOnG1004"><g id="ProcessOnG1005" transform="matrix(1.0,0.0,0.0,1.0,58.0,87.0)" opacity="1.0"><path id="ProcessOnPath1006" d="M0.0 0.0L771.0 0.0L771.0 335.0L0.0 335.0Z" stroke="#323232" stroke-width="2.0" stroke-dasharray="none" opacity="1.0" fill="#ffffff"/></g><g id="ProcessOnG1007" transform="matrix(1.0,0.0,0.0,1.0,76.0,142.0)" opacity="1.0"><path id="ProcessOnPath1008" d="M0.0 0.0L708.0 0.0L708.0 99.0L0.0 99.0Z" stroke="#323232" stroke-width="2.0" stroke-dasharray="none" opacity="1.0" fill="#ffffff"/></g><g id="ProcessOnG1009" transform="matrix(1.0,0.0,0.0,1.0,101.0,162.0)" opacity="1.0"><path id="ProcessOnPath1010" d="M0.0 0.0L100.0 0.0L100.0 70.0L0.0 70.0Z" stroke="#323232" stroke-width="2.0" stroke-dasharray="none" opacity="1.0" fill="#ffffff"/><g id="ProcessOnG1011" transform="matrix(1.0,0.0,0.0,1.0,10.0,19.375)"><text id="ProcessOnText1012" fill="#000000" font-size="25" x="39.0" y="25.625" font-family="微软雅黑" font-weight="normal" font-style="normal" text-decoration="none" family="微软雅黑" text-anchor="middle" size="25">Idle</text></g></g><g id="ProcessOnG1013" transform="matrix(1.0,0.0,0.0,1.0,233.0,162.0)" opacity="1.0"><path id="ProcessOnPath1014" d="M0.0 0.0L140.0 0.0L140.0 70.0L0.0 70.0Z" stroke="#323232" stroke-width="2.0" stroke-dasharray="none" opacity="1.0" fill="#ffffff"/><g id="ProcessOnG1015" transform="matrix(1.0,0.0,0.0,1.0,10.0,19.375)"><text id="ProcessOnText1016" fill="#000000" font-size="25" x="59.0" y="25.625" font-family="微软雅黑" font-weight="normal" font-style="normal" text-decoration="none" family="微软雅黑" text-anchor="middle" size="25">NoneIdle</text></g></g><g id="ProcessOnG1017" transform="matrix(1.0,0.0,0.0,1.0,394.0,162.0)" opacity="1.0"><path id="ProcessOnPath1018" d="M0.0 0.0L140.0 0.0L140.0 70.0L0.0 70.0Z" stroke="#323232" stroke-width="2.0" stroke-dasharray="none" opacity="1.0" fill="#ffffff"/><g id="ProcessOnG1019" transform="matrix(1.0,0.0,0.0,1.0,10.0,19.375)"><text id="ProcessOnText1020" fill="#000000" font-size="25" x="59.0" y="25.625" font-family="微软雅黑" font-weight="normal" font-style="normal" text-decoration="none" family="微软雅黑" text-anchor="middle" size="25">Move</text></g></g><g id="ProcessOnG1021" transform="matrix(1.0,0.0,0.0,1.0,568.0,162.0)" opacity="1.0"><path id="ProcessOnPath1022" d="M0.0 0.0L140.0 0.0L140.0 70.0L0.0 70.0Z" stroke="#323232" stroke-width="2.0" stroke-dasharray="none" opacity="1.0" fill="#ffffff"/><g id="ProcessOnG1023" transform="matrix(1.0,0.0,0.0,1.0,10.0,19.375)"><text id="ProcessOnText1024" fill="#000000" font-size="25" x="59.0" y="25.625" font-family="微软雅黑" font-weight="normal" font-style="normal" text-decoration="none" family="微软雅黑" text-anchor="middle" size="25">Run</text></g></g><g id="ProcessOnG1025" transform="matrix(1.0,0.0,0.0,1.0,76.0,280.0)" opacity="1.0"><path id="ProcessOnPath1026" d="M0.0 0.0L708.0 0.0L708.0 99.0L0.0 99.0Z" stroke="#323232" stroke-width="2.0" stroke-dasharray="none" opacity="1.0" fill="#ffffff"/></g><g id="ProcessOnG1027" transform="matrix(1.0,0.0,0.0,1.0,101.0,300.0)" opacity="1.0"><path id="ProcessOnPath1028" d="M0.0 0.0L100.0 0.0L100.0 70.0L0.0 70.0Z" stroke="#323232" stroke-width="2.0" stroke-dasharray="none" opacity="1.0" fill="#ffffff"/><g id="ProcessOnG1029" transform="matrix(1.0,0.0,0.0,1.0,10.0,19.375)"><text id="ProcessOnText1030" fill="#000000" font-size="25" x="39.0" y="25.625" font-family="微软雅黑" font-weight="normal" font-style="normal" text-decoration="none" family="微软雅黑" text-anchor="middle" size="25">Jump</text></g></g><g id="ProcessOnG1031" transform="matrix(1.0,0.0,0.0,1.0,233.0,300.0)" opacity="1.0"><path id="ProcessOnPath1032" d="M0.0 0.0L140.0 0.0L140.0 70.0L0.0 70.0Z" stroke="#323232" stroke-width="2.0" stroke-dasharray="none" opacity="1.0" fill="#ffffff"/><g id="ProcessOnG1033" transform="matrix(1.0,0.0,0.0,1.0,10.0,19.375)"><text id="ProcessOnText1034" fill="#000000" font-size="25" x="59.0" y="25.625" font-family="微软雅黑" font-weight="normal" font-style="normal" text-decoration="none" family="微软雅黑" text-anchor="middle" size="25">JumpIdle</text></g></g><g id="ProcessOnG1035" transform="matrix(1.0,0.0,0.0,1.0,394.0,300.0)" opacity="1.0"><path id="ProcessOnPath1036" d="M0.0 0.0L140.0 0.0L140.0 70.0L0.0 70.0Z" stroke="#323232" stroke-width="2.0" stroke-dasharray="none" opacity="1.0" fill="#ffffff"/><g id="ProcessOnG1037" transform="matrix(1.0,0.0,0.0,1.0,10.0,19.375)"><text id="ProcessOnText1038" fill="#000000" font-size="25" x="59.0" y="25.625" font-family="微软雅黑" font-weight="normal" font-style="normal" text-decoration="none" family="微软雅黑" text-anchor="middle" size="25">Fly</text></g></g><g id="ProcessOnG1039" transform="matrix(1.0,0.0,0.0,1.0,53.0,29.0)" opacity="1.0"><path id="ProcessOnPath1040" d="M0.0 0.0L557.0 0.0L557.0 51.0L0.0 51.0Z" stroke="none" stroke-width="0.0" stroke-dasharray="none" opacity="1.0" fill="none"/><g id="ProcessOnG1041" transform="matrix(1.0,0.0,0.0,1.0,0.0,0.5)"><text id="ProcessOnText1042" fill="#000000" font-size="40" x="0.0" y="41.0" font-family="微软雅黑" font-weight="normal" font-style="normal" text-decoration="none" family="微软雅黑" text-anchor="start" size="40">分层状态机</text></g></g></g></g></svg>