<svg xmlns="http://www.w3.org/2000/svg" xmlns:xlink="http://www.w3.org/1999/xlink" id="processonSvg1000" viewBox="118.0 44.0 908.0 658.0" width="908.0" height="658.0"><defs id="ProcessOnDefs1001"><marker id="ProcessOnMarker1027" markerUnits="userSpaceOnUse" orient="auto" markerWidth="16.23606797749979" markerHeight="10.550836550532098" viewBox="-1.0 -1.3763819204711736 16.23606797749979 10.550836550532098" refX="-1.0" refY="3.8990363547948754"><path id="ProcessOnPath1028" d="M12.0 3.8990363547948754L0.0 7.798072709589751V0.0Z" stroke="#323232" stroke-width="2.0" fill="#323232" transform="matrix(1.0,0.0,0.0,1.0,0.0,0.0)"/></marker><marker id="ProcessOnMarker1035" markerUnits="userSpaceOnUse" orient="auto" markerWidth="16.23606797749979" markerHeight="10.550836550532098" viewBox="-1.0 -1.3763819204711736 16.23606797749979 10.550836550532098" refX="-1.0" refY="3.8990363547948754"><path id="ProcessOnPath1036" d="M12.0 3.8990363547948754L0.0 7.798072709589751V0.0Z" stroke="#323232" stroke-width="2.0" fill="#323232" transform="matrix(1.0,0.0,0.0,1.0,0.0,0.0)"/></marker><marker id="ProcessOnMarker1043" markerUnits="userSpaceOnUse" orient="auto" markerWidth="16.23606797749979" markerHeight="10.550836550532098" viewBox="-1.0 -1.3763819204711736 16.23606797749979 10.550836550532098" refX="-1.0" refY="3.8990363547948754"><path id="ProcessOnPath1044" d="M12.0 3.8990363547948754L0.0 7.798072709589751V0.0Z" stroke="#323232" stroke-width="2.0" fill="#323232" transform="matrix(1.0,0.0,0.0,1.0,0.0,0.0)"/></marker><marker id="ProcessOnMarker1051" markerUnits="userSpaceOnUse" orient="auto" markerWidth="16.23606797749979" markerHeight="10.550836550532098" viewBox="-1.0 -1.3763819204711736 16.23606797749979 10.550836550532098" refX="-1.0" refY="3.8990363547948754"><path id="ProcessOnPath1052" d="M12.0 3.8990363547948754L0.0 7.798072709589751V0.0Z" stroke="#323232" stroke-width="2.0" fill="#323232" transform="matrix(1.0,0.0,0.0,1.0,0.0,0.0)"/></marker><marker id="ProcessOnMarker1059" markerUnits="userSpaceOnUse" orient="auto" markerWidth="16.23606797749979" markerHeight="10.550836550532098" viewBox="-1.0 -1.3763819204711736 16.23606797749979 10.550836550532098" refX="-1.0" refY="3.8990363547948754"><path id="ProcessOnPath1060" d="M12.0 3.8990363547948754L0.0 7.798072709589751V0.0Z" stroke="#323232" stroke-width="2.0" fill="#323232" transform="matrix(1.0,0.0,0.0,1.0,0.0,0.0)"/></marker></defs><g id="ProcessOnG1002"><path id="ProcessOnPath1003" d="M118.0 44.0H1026.0V702.0H118.0V44.0Z" fill="none"/><g id="ProcessOnG1004"><g id="ProcessOnG1005" transform="matrix(1.0,0.0,0.0,1.0,369.0,154.0)" opacity="1.0"><path id="ProcessOnPath1006" d="M0.0 0.0L382.0 0.0L382.0 436.0L0.0 436.0Z" stroke="#323232" stroke-width="2.0" stroke-dasharray="none" opacity="1.0" fill="#ffffff"/></g><g id="ProcessOnG1007" transform="matrix(1.0,0.0,0.0,1.0,138.0,188.0)" opacity="1.0"><path id="ProcessOnPath1008" d="M0.0 18.48L203.0 18.48L203.0 0.0L231.0 28.0L203.0 56.0L203.0 37.52L0.0 37.52L0.0 18.48Z" stroke="#323232" stroke-width="2.0" stroke-dasharray="none" opacity="1.0" fill="#ffffff"/></g><g id="ProcessOnG1009" transform="matrix(1.0,0.0,0.0,1.0,163.0,156.0)" opacity="1.0"><path id="ProcessOnPath1010" d="M0.0 0.0L168.0 0.0L168.0 42.0L0.0 42.0Z" stroke="none" stroke-width="0.0" stroke-dasharray="none" opacity="1.0" fill="none"/><g id="ProcessOnG1011" transform="matrix(1.0,0.0,0.0,1.0,0.0,12.875)"><text id="ProcessOnText1012" fill="#000000" font-size="13" x="83.0" y="13.325" font-family="微软雅黑" font-weight="normal" font-style="normal" text-decoration="none" family="微软雅黑" text-anchor="middle" size="13">主角</text></g></g><g id="ProcessOnG1013" transform="matrix(1.0,0.0,0.0,1.0,138.0,283.0)" opacity="1.0"><path id="ProcessOnPath1014" d="M0.0 18.48L203.0 18.48L203.0 0.0L231.0 28.0L203.0 56.0L203.0 37.52L0.0 37.52L0.0 18.48Z" stroke="#323232" stroke-width="2.0" stroke-dasharray="none" opacity="1.0" fill="#ffffff"/></g><g id="ProcessOnG1015" transform="matrix(1.0,0.0,0.0,1.0,156.0,250.0)" opacity="1.0"><path id="ProcessOnPath1016" d="M0.0 0.0L168.0 0.0L168.0 42.0L0.0 42.0Z" stroke="none" stroke-width="0.0" stroke-dasharray="none" opacity="1.0" fill="none"/><g id="ProcessOnG1017" transform="matrix(1.0,0.0,0.0,1.0,0.0,12.875)"><text id="ProcessOnText1018" fill="#000000" font-size="13" x="83.0" y="13.325" font-family="微软雅黑" font-weight="normal" font-style="normal" text-decoration="none" family="微软雅黑" text-anchor="middle" size="13">怪物AI</text></g></g><g id="ProcessOnG1019" transform="matrix(1.0,0.0,0.0,1.0,369.0,64.0)" opacity="1.0"><path id="ProcessOnPath1020" d="M19.8 0.0L40.2 0.0L40.2 60.0L60.0 60.0L30.0 90.0L0.0 60.0L19.8 60.0L19.8 0.0Z" stroke="#323232" stroke-width="2.0" stroke-dasharray="none" opacity="1.0" fill="#ffffff"/></g><g id="ProcessOnG1021" transform="matrix(1.0,0.0,0.0,1.0,360.0,87.0)" opacity="1.0"><path id="ProcessOnPath1022" d="M0.0 0.0L132.0 0.0L132.0 28.0L0.0 28.0Z" stroke="none" stroke-width="0.0" stroke-dasharray="none" opacity="1.0" fill="none"/><g id="ProcessOnG1023" transform="matrix(1.0,0.0,0.0,1.0,0.0,5.875)"><text id="ProcessOnText1024" fill="#000000" font-size="13" x="65.0" y="13.325" font-family="微软雅黑" font-weight="normal" font-style="normal" text-decoration="none" family="微软雅黑" text-anchor="middle" size="13">网络</text></g></g><g id="ProcessOnG1025"><path id="ProcessOnPath1026" d="M751.0 213.0L848.0 213.0L848.0 213.0L929.7639320225002 213.0" stroke="#323232" stroke-width="2.0" stroke-dasharray="none" fill="none" marker-end="url(#ProcessOnMarker1027)"/></g><g id="ProcessOnG1029" transform="matrix(1.0,0.0,0.0,1.0,778.0,179.0)" opacity="1.0"><path id="ProcessOnPath1030" d="M0.0 0.0L142.0 0.0L142.0 25.0L0.0 25.0Z" stroke="none" stroke-width="0.0" stroke-dasharray="none" opacity="1.0" fill="none"/><g id="ProcessOnG1031" transform="matrix(1.0,0.0,0.0,1.0,0.0,4.375)"><text id="ProcessOnText1032" fill="#000000" font-size="13" x="70.0" y="13.325" font-family="微软雅黑" font-weight="normal" font-style="normal" text-decoration="none" family="微软雅黑" text-anchor="middle" size="13">动画</text></g></g><g id="ProcessOnG1033"><path id="ProcessOnPath1034" d="M751.0 260.0L848.5 260.0L848.5 260.0L930.7639320225002 260.0" stroke="#323232" stroke-width="2.0" stroke-dasharray="none" fill="none" marker-end="url(#ProcessOnMarker1035)"/></g><g id="ProcessOnG1037" transform="matrix(1.0,0.0,0.0,1.0,790.0,229.0)" opacity="1.0"><path id="ProcessOnPath1038" d="M0.0 0.0L116.0 0.0L116.0 22.0L0.0 22.0Z" stroke="none" stroke-width="0.0" stroke-dasharray="none" opacity="1.0" fill="none"/><g id="ProcessOnG1039" transform="matrix(1.0,0.0,0.0,1.0,0.0,2.875)"><text id="ProcessOnText1040" fill="#000000" font-size="13" x="57.0" y="13.325" font-family="微软雅黑" font-weight="normal" font-style="normal" text-decoration="none" family="微软雅黑" text-anchor="middle" size="13">特效</text></g></g><g id="ProcessOnG1041"><path id="ProcessOnPath1042" d="M751.0 537.0L781.0 537.0L781.0 620.0L452.0 620.0L452.0 603.2360679774998" stroke="#323232" stroke-width="2.0" stroke-dasharray="none" fill="none" marker-end="url(#ProcessOnMarker1043)"/></g><g id="ProcessOnG1045" transform="matrix(1.0,0.0,0.0,1.0,791.0,553.0)" opacity="1.0"><path id="ProcessOnPath1046" d="M0.0 0.0L49.0 0.0L49.0 49.0L0.0 49.0Z" stroke="none" stroke-width="0.0" stroke-dasharray="none" opacity="1.0" fill="none"/><g id="ProcessOnG1047" transform="matrix(1.0,0.0,0.0,1.0,0.0,16.375)"><text id="ProcessOnText1048" fill="#000000" font-size="13" x="23.5" y="13.325" font-family="微软雅黑" font-weight="normal" font-style="normal" text-decoration="none" family="微软雅黑" text-anchor="middle" size="13">Buff</text></g></g><g id="ProcessOnG1049"><path id="ProcessOnPath1050" d="M751.0 444.0L863.0 444.0L863.0 672.0L425.5 672.0L425.5 603.2360679774998" stroke="#323232" stroke-width="2.0" stroke-dasharray="none" fill="none" marker-end="url(#ProcessOnMarker1051)"/></g><g id="ProcessOnG1053" transform="matrix(1.0,0.0,0.0,1.0,858.0,497.0)" opacity="1.0"><path id="ProcessOnPath1054" d="M0.0 0.0L52.0 0.0L52.0 91.0L0.0 91.0Z" stroke="none" stroke-width="0.0" stroke-dasharray="none" opacity="1.0" fill="none"/><g id="ProcessOnG1055" transform="matrix(1.0,0.0,0.0,1.0,0.0,37.375)"><text id="ProcessOnText1056" fill="#000000" font-size="13" x="25.0" y="13.325" font-family="微软雅黑" font-weight="normal" font-style="normal" text-decoration="none" family="微软雅黑" text-anchor="middle" size="13">弹道</text></g></g><g id="ProcessOnG1057"><path id="ProcessOnPath1058" d="M751.0 322.0L943.0 322.0L943.0 682.0L403.0 682.0L403.0 605.2360679774998" stroke="#323232" stroke-width="2.0" stroke-dasharray="none" fill="none" marker-end="url(#ProcessOnMarker1059)"/></g><g id="ProcessOnG1061" transform="matrix(1.0,0.0,0.0,1.0,954.0,452.0)" opacity="1.0"><path id="ProcessOnPath1062" d="M0.0 0.0L52.0 0.0L52.0 91.0L0.0 91.0Z" stroke="none" stroke-width="0.0" stroke-dasharray="none" opacity="1.0" fill="none"/><g id="ProcessOnG1063" transform="matrix(1.0,0.0,0.0,1.0,0.0,37.375)"><text id="ProcessOnText1064" fill="#000000" font-size="13" x="25.0" y="13.325" font-family="微软雅黑" font-weight="normal" font-style="normal" text-decoration="none" family="微软雅黑" text-anchor="middle" size="13">法术场</text></g></g><g id="ProcessOnG1065" transform="matrix(1.0,0.0,0.0,1.0,369.0,156.0)" opacity="1.0"><path id="ProcessOnPath1066" d="M0.0 0.0L113.0 0.0L113.0 432.0L0.0 432.0Z" stroke="#323232" stroke-width="2.0" stroke-dasharray="none" opacity="1.0" fill="#ffffff"/><g id="ProcessOnG1067" transform="matrix(1.0,0.0,0.0,1.0,10.0,178.5)"><text id="ProcessOnText1068" fill="#000000" font-size="30" x="45.5" y="30.75" font-family="微软雅黑" font-weight="normal" font-style="normal" text-decoration="none" family="微软雅黑" text-anchor="middle" size="30">合法性</text><text id="ProcessOnText1069" fill="#000000" font-size="30" x="45.5" y="68.25" font-family="微软雅黑" font-weight="normal" font-style="normal" text-decoration="none" family="微软雅黑" text-anchor="middle" size="30">检查</text></g></g><g id="ProcessOnG1070" transform="matrix(1.0,0.0,0.0,1.0,429.0,64.0)" opacity="1.0"><path id="ProcessOnPath1071" d="M0.0 0.0L250.0 0.0L250.0 61.0L0.0 61.0Z" stroke="none" stroke-width="0.0" stroke-dasharray="none" opacity="1.0" fill="none"/><g id="ProcessOnG1072" transform="matrix(1.0,0.0,0.0,1.0,0.0,11.75)"><text id="ProcessOnText1073" fill="#000000" font-size="30" x="124.0" y="30.75" font-family="微软雅黑" font-weight="normal" font-style="normal" text-decoration="none" family="微软雅黑" text-anchor="middle" size="30">技能系统</text></g></g><g id="ProcessOnG1074" transform="matrix(1.0,0.0,0.0,1.0,612.0,156.0)" opacity="1.0"><path id="ProcessOnPath1075" d="M0.0 0.0L142.0 0.0L142.0 432.0L0.0 432.0Z" stroke="#323232" stroke-width="2.0" stroke-dasharray="none" opacity="1.0" fill="#ffffff"/><g id="ProcessOnG1076" transform="matrix(1.0,0.0,0.0,1.0,10.0,178.5)"><text id="ProcessOnText1077" fill="#000000" font-size="30" x="60.0" y="30.75" font-family="微软雅黑" font-weight="normal" font-style="normal" text-decoration="none" family="微软雅黑" text-anchor="middle" size="30">技能施放</text><text id="ProcessOnText1078" fill="#000000" font-size="30" x="60.0" y="68.25" font-family="微软雅黑" font-weight="normal" font-style="normal" text-decoration="none" family="微软雅黑" text-anchor="middle" size="30">流程</text></g></g><g id="ProcessOnG1079" transform="matrix(1.0,0.0,0.0,1.0,482.0,339.0)" opacity="1.0"><path id="ProcessOnPath1080" d="M0.0 19.14L101.0 19.14L101.0 0.0L130.0 29.0L101.0 58.0L101.0 38.86L0.0 38.86L0.0 19.14Z" stroke="#323232" stroke-width="2.0" stroke-dasharray="none" opacity="1.0" fill="#ffffff"/></g><g id="ProcessOnG1081" transform="matrix(1.0,0.0,0.0,1.0,496.0,313.0)" opacity="1.0"><path id="ProcessOnPath1082" d="M0.0 0.0L61.0 0.0L61.0 33.0L0.0 33.0Z" stroke="none" stroke-width="0.0" stroke-dasharray="none" opacity="1.0" fill="none"/><g id="ProcessOnG1083" transform="matrix(1.0,0.0,0.0,1.0,0.0,8.375)"><text id="ProcessOnText1084" fill="#000000" font-size="13" x="29.5" y="13.325" font-family="微软雅黑" font-weight="normal" font-style="normal" text-decoration="none" family="微软雅黑" text-anchor="middle" size="13">合法</text></g></g></g></g></svg>