<svg xmlns="http://www.w3.org/2000/svg" xmlns:xlink="http://www.w3.org/1999/xlink" id="processonSvg1000" viewBox="96.0 16.875 1072.0 474.125" width="1072.0" height="474.125"><defs id="ProcessOnDefs1001"/><g id="ProcessOnG1002"><path id="ProcessOnPath1003" d="M96.0 16.875H1168.0V491.0H96.0V16.875Z" fill="none"/><g id="ProcessOnG1004"><g id="ProcessOnG1005" transform="matrix(1.0,0.0,0.0,1.0,116.0,141.0)" opacity="1.0"><path id="ProcessOnPath1006" d="M0.0 19.8L192.0 19.8L192.0 0.0L222.0 30.0L192.0 60.0L192.0 40.2L0.0 40.2L0.0 19.8Z" stroke="#323232" stroke-width="2.0" stroke-dasharray="none" opacity="1.0" fill="#ffffff"/></g><g id="ProcessOnG1007" transform="matrix(1.0,0.0,0.0,1.0,116.0,310.0)" opacity="1.0"><path id="ProcessOnPath1008" d="M0.0 19.8L192.0 19.8L192.0 0.0L222.0 30.0L192.0 60.0L192.0 40.2L0.0 40.2L0.0 19.8Z" stroke="#323232" stroke-width="2.0" stroke-dasharray="none" opacity="1.0" fill="#ffffff"/></g><g id="ProcessOnG1009" transform="matrix(1.0,0.0,0.0,1.0,137.0,126.0)" opacity="1.0"><path id="ProcessOnPath1010" d="M0.0 0.0L157.0 0.0L157.0 20.0L0.0 20.0Z" stroke="none" stroke-width="0.0" stroke-dasharray="none" opacity="1.0" fill="none"/><g id="ProcessOnG1011" transform="matrix(1.0,0.0,0.0,1.0,0.0,1.875)"><text id="ProcessOnText1012" fill="#000000" font-size="13" x="77.5" y="13.325" font-family="微软雅黑" font-weight="normal" font-style="normal" text-decoration="none" family="微软雅黑" text-anchor="middle" size="13">动作技能请求</text></g></g><g id="ProcessOnG1013" transform="matrix(1.0,0.0,0.0,1.0,138.0,296.0)" opacity="1.0"><path id="ProcessOnPath1014" d="M0.0 0.0L156.0 0.0L156.0 24.0L0.0 24.0Z" stroke="none" stroke-width="0.0" stroke-dasharray="none" opacity="1.0" fill="none"/><g id="ProcessOnG1015" transform="matrix(1.0,0.0,0.0,1.0,0.0,3.875)"><text id="ProcessOnText1016" fill="#000000" font-size="13" x="77.0" y="13.325" font-family="微软雅黑" font-weight="normal" font-style="normal" text-decoration="none" family="微软雅黑" text-anchor="middle" size="13">Buff请求</text></g></g><g id="ProcessOnG1017" transform="matrix(1.0,0.0,0.0,1.0,343.0,80.0)" opacity="1.0"><path id="ProcessOnPath1018" d="M0.0 0.0L579.0 0.0L579.0 391.0L0.0 391.0Z" stroke="#323232" stroke-width="2.0" stroke-dasharray="none" opacity="1.0" fill="#ffffff"/></g><g id="ProcessOnG1019" transform="matrix(1.0,0.0,0.0,1.0,440.0,38.0)" opacity="1.0"><path id="ProcessOnPath1020" d="M0.0 0.0L368.0 0.0L368.0 29.0L0.0 29.0Z" stroke="none" stroke-width="0.0" stroke-dasharray="none" opacity="1.0" fill="none"/><g id="ProcessOnG1021" transform="matrix(1.0,0.0,0.0,1.0,0.0,-1.125)"><text id="ProcessOnText1022" fill="#000000" font-size="25" x="183.0" y="25.625" font-family="微软雅黑" font-weight="normal" font-style="normal" text-decoration="none" family="微软雅黑" text-anchor="middle" size="25">技能系统</text></g></g><g id="ProcessOnG1023" transform="matrix(1.0,0.0,0.0,1.0,358.0,95.0)" opacity="1.0"><path id="ProcessOnPath1024" d="M0.0 0.0L543.0 0.0L543.0 130.0L0.0 130.0Z" stroke="#323232" stroke-width="2.0" stroke-dasharray="none" opacity="1.0" fill="#ffffff"/><g id="ProcessOnG1025" transform="matrix(1.0,0.0,0.0,1.0,10.0,43.125)"><text id="ProcessOnText1026" fill="#000000" font-size="35" x="260.5" y="35.875" font-family="微软雅黑" font-weight="normal" font-style="normal" text-decoration="none" family="微软雅黑" text-anchor="middle" size="35">动作技能系统（状态机模型）</text></g></g><g id="ProcessOnG1027" transform="matrix(1.0,0.0,0.0,1.0,352.5,270.0)" opacity="1.0"><path id="ProcessOnPath1028" d="M0.0 0.0L543.0 0.0L543.0 130.0L0.0 130.0Z" stroke="#323232" stroke-width="2.0" stroke-dasharray="none" opacity="1.0" fill="#ffffff"/><g id="ProcessOnG1029" transform="matrix(1.0,0.0,0.0,1.0,10.0,43.125)"><text id="ProcessOnText1030" fill="#000000" font-size="35" x="260.5" y="35.875" font-family="微软雅黑" font-weight="normal" font-style="normal" text-decoration="none" family="微软雅黑" text-anchor="middle" size="35">Buff系统</text></g></g><g id="ProcessOnG1031" transform="matrix(1.0,0.0,0.0,1.0,926.0,141.0)" opacity="1.0"><path id="ProcessOnPath1032" d="M0.0 19.8L192.0 19.8L192.0 0.0L222.0 30.0L192.0 60.0L192.0 40.2L0.0 40.2L0.0 19.8Z" stroke="#323232" stroke-width="2.0" stroke-dasharray="none" opacity="1.0" fill="#ffffff"/></g><g id="ProcessOnG1033" transform="matrix(1.0,0.0,0.0,1.0,926.0,310.0)" opacity="1.0"><path id="ProcessOnPath1034" d="M0.0 19.8L192.0 19.8L192.0 0.0L222.0 30.0L192.0 60.0L192.0 40.2L0.0 40.2L0.0 19.8Z" stroke="#323232" stroke-width="2.0" stroke-dasharray="none" opacity="1.0" fill="#ffffff"/></g><g id="ProcessOnG1035" transform="matrix(1.0,0.0,0.0,1.0,932.0,129.0)" opacity="1.0"><path id="ProcessOnPath1036" d="M0.0 0.0L177.0 0.0L177.0 21.0L0.0 21.0Z" stroke="none" stroke-width="0.0" stroke-dasharray="none" opacity="1.0" fill="none"/><g id="ProcessOnG1037" transform="matrix(1.0,0.0,0.0,1.0,0.0,2.375)"><text id="ProcessOnText1038" fill="#000000" font-size="13" x="87.5" y="13.325" font-family="微软雅黑" font-weight="normal" font-style="normal" text-decoration="none" family="微软雅黑" text-anchor="middle" size="13">正确的技能动作和特效</text></g></g><g id="ProcessOnG1039" transform="matrix(1.0,0.0,0.0,1.0,965.0,298.0)" opacity="1.0"><path id="ProcessOnPath1040" d="M0.0 0.0L134.0 0.0L134.0 23.0L0.0 23.0Z" stroke="none" stroke-width="0.0" stroke-dasharray="none" opacity="1.0" fill="none"/><g id="ProcessOnG1041" transform="matrix(1.0,0.0,0.0,1.0,0.0,3.375)"><text id="ProcessOnText1042" fill="#000000" font-size="13" x="66.0" y="13.325" font-family="微软雅黑" font-weight="normal" font-style="normal" text-decoration="none" family="微软雅黑" text-anchor="middle" size="13">Buff效果</text></g></g></g></g></svg>