<svg xmlns="http://www.w3.org/2000/svg" xmlns:xlink="http://www.w3.org/1999/xlink" id="processonSvg1000" viewBox="118.0 46.0 908.0 656.0" width="908.0" height="656.0"><defs id="ProcessOnDefs1001"><marker id="ProcessOnMarker1025" markerUnits="userSpaceOnUse" orient="auto" markerWidth="16.23606797749979" markerHeight="10.550836550532098" viewBox="-1.0 -1.3763819204711736 16.23606797749979 10.550836550532098" refX="-1.0" refY="3.8990363547948754"><path id="ProcessOnPath1026" d="M12.0 3.8990363547948754L0.0 7.798072709589751V0.0Z" stroke="#323232" stroke-width="2.0" fill="#323232" transform="matrix(1.0,0.0,0.0,1.0,0.0,0.0)"/></marker><marker id="ProcessOnMarker1033" markerUnits="userSpaceOnUse" orient="auto" markerWidth="16.23606797749979" markerHeight="10.550836550532098" viewBox="-1.0 -1.3763819204711736 16.23606797749979 10.550836550532098" refX="-1.0" refY="3.8990363547948754"><path id="ProcessOnPath1034" d="M12.0 3.8990363547948754L0.0 7.798072709589751V0.0Z" stroke="#323232" stroke-width="2.0" fill="#323232" transform="matrix(1.0,0.0,0.0,1.0,0.0,0.0)"/></marker><marker id="ProcessOnMarker1041" markerUnits="userSpaceOnUse" orient="auto" markerWidth="16.23606797749979" markerHeight="10.550836550532098" viewBox="-1.0 -1.3763819204711736 16.23606797749979 10.550836550532098" refX="-1.0" refY="3.8990363547948754"><path id="ProcessOnPath1042" d="M12.0 3.8990363547948754L0.0 7.798072709589751V0.0Z" stroke="#323232" stroke-width="2.0" fill="#323232" transform="matrix(1.0,0.0,0.0,1.0,0.0,0.0)"/></marker><marker id="ProcessOnMarker1049" markerUnits="userSpaceOnUse" orient="auto" markerWidth="16.23606797749979" markerHeight="10.550836550532098" viewBox="-1.0 -1.3763819204711736 16.23606797749979 10.550836550532098" refX="-1.0" refY="3.8990363547948754"><path id="ProcessOnPath1050" d="M12.0 3.8990363547948754L0.0 7.798072709589751V0.0Z" stroke="#323232" stroke-width="2.0" fill="#323232" transform="matrix(1.0,0.0,0.0,1.0,0.0,0.0)"/></marker><marker id="ProcessOnMarker1057" markerUnits="userSpaceOnUse" orient="auto" markerWidth="16.23606797749979" markerHeight="10.550836550532098" viewBox="-1.0 -1.3763819204711736 16.23606797749979 10.550836550532098" refX="-1.0" refY="3.8990363547948754"><path id="ProcessOnPath1058" d="M12.0 3.8990363547948754L0.0 7.798072709589751V0.0Z" stroke="#323232" stroke-width="2.0" fill="#323232" transform="matrix(1.0,0.0,0.0,1.0,0.0,0.0)"/></marker></defs><g id="ProcessOnG1002"><path id="ProcessOnPath1003" d="M118.0 46.0H1026.0V702.0H118.0V46.0Z" fill="none"/><g id="ProcessOnG1004"><g id="ProcessOnG1005" transform="matrix(1.0,0.0,0.0,1.0,369.0,154.0)" opacity="1.0"><path id="ProcessOnPath1006" d="M0.0 0.0L382.0 0.0L382.0 436.0L0.0 436.0Z" stroke="#323232" stroke-width="2.0" stroke-dasharray="none" opacity="1.0" fill="#ffffff"/></g><g id="ProcessOnG1007" transform="matrix(1.0,0.0,0.0,1.0,138.0,188.0)" opacity="1.0"><path id="ProcessOnPath1008" d="M0.0 18.48L203.0 18.48L203.0 0.0L231.0 28.0L203.0 56.0L203.0 37.52L0.0 37.52L0.0 18.48Z" stroke="#323232" stroke-width="2.0" stroke-dasharray="none" opacity="1.0" fill="#ffffff"/></g><g id="ProcessOnG1009" transform="matrix(1.0,0.0,0.0,1.0,163.0,156.0)" opacity="1.0"><path id="ProcessOnPath1010" d="M0.0 0.0L168.0 0.0L168.0 42.0L0.0 42.0Z" stroke="none" stroke-width="0.0" stroke-dasharray="none" opacity="1.0" fill="none"/><g id="ProcessOnG1011" transform="matrix(1.0,0.0,0.0,1.0,0.0,12.875)"><text id="ProcessOnText1012" fill="#000000" font-size="13" x="83.0" y="13.325" font-family="微软雅黑" font-weight="normal" font-style="normal" text-decoration="none" family="微软雅黑" text-anchor="middle" size="13">主角</text></g></g><g id="ProcessOnG1013" transform="matrix(1.0,0.0,0.0,1.0,643.0,74.0)" opacity="1.0"><path id="ProcessOnPath1014" d="M0.0 0.0L54.0 0.0L54.0 41.0L0.0 41.0Z" stroke="none" stroke-width="0.0" stroke-dasharray="none" opacity="1.0" fill="none"/><g id="ProcessOnG1015" transform="matrix(1.0,0.0,0.0,1.0,0.0,12.375)"><text id="ProcessOnText1016" fill="#000000" font-size="13" x="26.0" y="13.325" font-family="微软雅黑" font-weight="normal" font-style="normal" text-decoration="none" family="微软雅黑" text-anchor="middle" size="13">怪物AI</text></g></g><g id="ProcessOnG1017" transform="matrix(1.0,0.0,0.0,1.0,697.0,66.0)" opacity="1.0"><path id="ProcessOnPath1018" d="M19.8 0.0L40.2 0.0L40.2 60.0L60.0 60.0L30.0 90.0L0.0 60.0L19.8 60.0L19.8 0.0Z" stroke="#323232" stroke-width="2.0" stroke-dasharray="none" opacity="1.0" fill="#ffffff"/></g><g id="ProcessOnG1019" transform="matrix(1.0,0.0,0.0,1.0,688.0,89.0)" opacity="1.0"><path id="ProcessOnPath1020" d="M0.0 0.0L132.0 0.0L132.0 28.0L0.0 28.0Z" stroke="none" stroke-width="0.0" stroke-dasharray="none" opacity="1.0" fill="none"/><g id="ProcessOnG1021" transform="matrix(1.0,0.0,0.0,1.0,0.0,5.875)"><text id="ProcessOnText1022" fill="#000000" font-size="13" x="65.0" y="13.325" font-family="微软雅黑" font-weight="normal" font-style="normal" text-decoration="none" family="微软雅黑" text-anchor="middle" size="13">网络</text></g></g><g id="ProcessOnG1023"><path id="ProcessOnPath1024" d="M751.0 213.0L848.0 213.0L848.0 213.0L929.7639320225002 213.0" stroke="#323232" stroke-width="2.0" stroke-dasharray="none" fill="none" marker-end="url(#ProcessOnMarker1025)"/></g><g id="ProcessOnG1027" transform="matrix(1.0,0.0,0.0,1.0,778.0,179.0)" opacity="1.0"><path id="ProcessOnPath1028" d="M0.0 0.0L142.0 0.0L142.0 25.0L0.0 25.0Z" stroke="none" stroke-width="0.0" stroke-dasharray="none" opacity="1.0" fill="none"/><g id="ProcessOnG1029" transform="matrix(1.0,0.0,0.0,1.0,0.0,4.375)"><text id="ProcessOnText1030" fill="#000000" font-size="13" x="70.0" y="13.325" font-family="微软雅黑" font-weight="normal" font-style="normal" text-decoration="none" family="微软雅黑" text-anchor="middle" size="13">动画</text></g></g><g id="ProcessOnG1031"><path id="ProcessOnPath1032" d="M751.0 260.0L848.5 260.0L848.5 260.0L930.7639320225002 260.0" stroke="#323232" stroke-width="2.0" stroke-dasharray="none" fill="none" marker-end="url(#ProcessOnMarker1033)"/></g><g id="ProcessOnG1035" transform="matrix(1.0,0.0,0.0,1.0,790.0,229.0)" opacity="1.0"><path id="ProcessOnPath1036" d="M0.0 0.0L116.0 0.0L116.0 22.0L0.0 22.0Z" stroke="none" stroke-width="0.0" stroke-dasharray="none" opacity="1.0" fill="none"/><g id="ProcessOnG1037" transform="matrix(1.0,0.0,0.0,1.0,0.0,2.875)"><text id="ProcessOnText1038" fill="#000000" font-size="13" x="57.0" y="13.325" font-family="微软雅黑" font-weight="normal" font-style="normal" text-decoration="none" family="微软雅黑" text-anchor="middle" size="13">特效</text></g></g><g id="ProcessOnG1039"><path id="ProcessOnPath1040" d="M751.0 537.0L784.0 537.0L784.0 620.0L731.0 620.0L731.0 603.2360679774998" stroke="#323232" stroke-width="2.0" stroke-dasharray="none" fill="none" marker-end="url(#ProcessOnMarker1041)"/></g><g id="ProcessOnG1043" transform="matrix(1.0,0.0,0.0,1.0,791.0,553.0)" opacity="1.0"><path id="ProcessOnPath1044" d="M0.0 0.0L49.0 0.0L49.0 49.0L0.0 49.0Z" stroke="none" stroke-width="0.0" stroke-dasharray="none" opacity="1.0" fill="none"/><g id="ProcessOnG1045" transform="matrix(1.0,0.0,0.0,1.0,0.0,16.375)"><text id="ProcessOnText1046" fill="#000000" font-size="13" x="23.5" y="13.325" font-family="微软雅黑" font-weight="normal" font-style="normal" text-decoration="none" family="微软雅黑" text-anchor="middle" size="13">Buff</text></g></g><g id="ProcessOnG1047"><path id="ProcessOnPath1048" d="M751.0 444.0L862.0 444.0L862.0 653.0L644.0 653.0L644.0 605.2360679774998" stroke="#323232" stroke-width="2.0" stroke-dasharray="none" fill="none" marker-end="url(#ProcessOnMarker1049)"/></g><g id="ProcessOnG1051" transform="matrix(1.0,0.0,0.0,1.0,954.0,517.0)" opacity="1.0"><path id="ProcessOnPath1052" d="M0.0 0.0L52.0 0.0L52.0 91.0L0.0 91.0Z" stroke="none" stroke-width="0.0" stroke-dasharray="none" opacity="1.0" fill="none"/><g id="ProcessOnG1053" transform="matrix(1.0,0.0,0.0,1.0,0.0,37.375)"><text id="ProcessOnText1054" fill="#000000" font-size="13" x="25.0" y="13.325" font-family="微软雅黑" font-weight="normal" font-style="normal" text-decoration="none" family="微软雅黑" text-anchor="middle" size="13">弹道</text></g></g><g id="ProcessOnG1055"><path id="ProcessOnPath1056" d="M751.0 322.0L943.0 322.0L943.0 682.0L403.0 682.0L403.0 605.2360679774998" stroke="#323232" stroke-width="2.0" stroke-dasharray="none" fill="none" marker-end="url(#ProcessOnMarker1057)"/></g><g id="ProcessOnG1059" transform="matrix(1.0,0.0,0.0,1.0,865.0,511.0)" opacity="1.0"><path id="ProcessOnPath1060" d="M0.0 0.0L52.0 0.0L52.0 91.0L0.0 91.0Z" stroke="none" stroke-width="0.0" stroke-dasharray="none" opacity="1.0" fill="none"/><g id="ProcessOnG1061" transform="matrix(1.0,0.0,0.0,1.0,0.0,37.375)"><text id="ProcessOnText1062" fill="#000000" font-size="13" x="25.0" y="13.325" font-family="微软雅黑" font-weight="normal" font-style="normal" text-decoration="none" family="微软雅黑" text-anchor="middle" size="13">法术场</text></g></g><g id="ProcessOnG1063" transform="matrix(1.0,0.0,0.0,1.0,369.0,156.0)" opacity="1.0"><path id="ProcessOnPath1064" d="M0.0 0.0L113.0 0.0L113.0 432.0L0.0 432.0Z" stroke="#323232" stroke-width="2.0" stroke-dasharray="none" opacity="1.0" fill="#ffffff"/><g id="ProcessOnG1065" transform="matrix(1.0,0.0,0.0,1.0,10.0,178.5)"><text id="ProcessOnText1066" fill="#000000" font-size="30" x="45.5" y="30.75" font-family="微软雅黑" font-weight="normal" font-style="normal" text-decoration="none" family="微软雅黑" text-anchor="middle" size="30">合法性</text><text id="ProcessOnText1067" fill="#000000" font-size="30" x="45.5" y="68.25" font-family="微软雅黑" font-weight="normal" font-style="normal" text-decoration="none" family="微软雅黑" text-anchor="middle" size="30">检查</text></g></g><g id="ProcessOnG1068" transform="matrix(1.0,0.0,0.0,1.0,344.0,70.0)" opacity="1.0"><path id="ProcessOnPath1069" d="M0.0 0.0L250.0 0.0L250.0 61.0L0.0 61.0Z" stroke="none" stroke-width="0.0" stroke-dasharray="none" opacity="1.0" fill="none"/><g id="ProcessOnG1070" transform="matrix(1.0,0.0,0.0,1.0,0.0,11.75)"><text id="ProcessOnText1071" fill="#000000" font-size="30" x="124.0" y="30.75" font-family="微软雅黑" font-weight="normal" font-style="normal" text-decoration="none" family="微软雅黑" text-anchor="middle" size="30">技能系统</text></g></g><g id="ProcessOnG1072" transform="matrix(1.0,0.0,0.0,1.0,612.0,156.0)" opacity="1.0"><path id="ProcessOnPath1073" d="M0.0 0.0L142.0 0.0L142.0 432.0L0.0 432.0Z" stroke="#323232" stroke-width="2.0" stroke-dasharray="none" opacity="1.0" fill="#ffffff"/><g id="ProcessOnG1074" transform="matrix(1.0,0.0,0.0,1.0,10.0,178.5)"><text id="ProcessOnText1075" fill="#000000" font-size="30" x="60.0" y="30.75" font-family="微软雅黑" font-weight="normal" font-style="normal" text-decoration="none" family="微软雅黑" text-anchor="middle" size="30">技能施放</text><text id="ProcessOnText1076" fill="#000000" font-size="30" x="60.0" y="68.25" font-family="微软雅黑" font-weight="normal" font-style="normal" text-decoration="none" family="微软雅黑" text-anchor="middle" size="30">流程</text></g></g><g id="ProcessOnG1077" transform="matrix(1.0,0.0,0.0,1.0,482.0,339.0)" opacity="1.0"><path id="ProcessOnPath1078" d="M0.0 19.14L101.0 19.14L101.0 0.0L130.0 29.0L101.0 58.0L101.0 38.86L0.0 38.86L0.0 19.14Z" stroke="#323232" stroke-width="2.0" stroke-dasharray="none" opacity="1.0" fill="#ffffff"/></g><g id="ProcessOnG1079" transform="matrix(1.0,0.0,0.0,1.0,496.0,313.0)" opacity="1.0"><path id="ProcessOnPath1080" d="M0.0 0.0L61.0 0.0L61.0 33.0L0.0 33.0Z" stroke="none" stroke-width="0.0" stroke-dasharray="none" opacity="1.0" fill="none"/><g id="ProcessOnG1081" transform="matrix(1.0,0.0,0.0,1.0,0.0,8.375)"><text id="ProcessOnText1082" fill="#000000" font-size="13" x="29.5" y="13.325" font-family="微软雅黑" font-weight="normal" font-style="normal" text-decoration="none" family="微软雅黑" text-anchor="middle" size="13">合法</text></g></g><g id="ProcessOnG1083" transform="matrix(1.0,0.0,0.0,1.0,600.0,66.0)" opacity="1.0"><path id="ProcessOnPath1084" d="M19.8 0.0L40.2 0.0L40.2 60.0L60.0 60.0L30.0 90.0L0.0 60.0L19.8 60.0L19.8 0.0Z" stroke="#323232" stroke-width="2.0" stroke-dasharray="none" opacity="1.0" fill="#ffffff"/></g></g></g></svg>