<svg xmlns="http://www.w3.org/2000/svg" xmlns:xlink="http://www.w3.org/1999/xlink" id="processonSvg1000" viewBox="21.0 213.0 1007.0 658.0" width="1007.0" height="658.0"><defs id="ProcessOnDefs1001"><marker id="ProcessOnMarker1023" markerUnits="userSpaceOnUse" orient="auto" markerWidth="16.23606797749979" markerHeight="10.550836550532098" viewBox="-1.0 -1.3763819204711736 16.23606797749979 10.550836550532098" refX="-1.0" refY="3.8990363547948754"><path id="ProcessOnPath1024" d="M12.0 3.8990363547948754L0.0 7.798072709589751V0.0Z" stroke="#323232" stroke-width="2.0" fill="#323232" transform="matrix(1.0,0.0,0.0,1.0,0.0,0.0)"/></marker><marker id="ProcessOnMarker1031" markerUnits="userSpaceOnUse" orient="auto" markerWidth="16.23606797749979" markerHeight="10.550836550532098" viewBox="-1.0 -1.3763819204711736 16.23606797749979 10.550836550532098" refX="-1.0" refY="3.8990363547948754"><path id="ProcessOnPath1032" d="M12.0 3.8990363547948754L0.0 7.798072709589751V0.0Z" stroke="#323232" stroke-width="2.0" fill="#323232" transform="matrix(1.0,0.0,0.0,1.0,0.0,0.0)"/></marker><marker id="ProcessOnMarker1039" markerUnits="userSpaceOnUse" orient="auto" markerWidth="16.23606797749979" markerHeight="10.550836550532098" viewBox="-1.0 -1.3763819204711736 16.23606797749979 10.550836550532098" refX="-1.0" refY="3.8990363547948754"><path id="ProcessOnPath1040" d="M12.0 3.8990363547948754L0.0 7.798072709589751V0.0Z" stroke="#323232" stroke-width="2.0" fill="#323232" transform="matrix(1.0,0.0,0.0,1.0,0.0,0.0)"/></marker><marker id="ProcessOnMarker1047" markerUnits="userSpaceOnUse" orient="auto" markerWidth="16.23606797749979" markerHeight="10.550836550532098" viewBox="-1.0 -1.3763819204711736 16.23606797749979 10.550836550532098" refX="-1.0" refY="3.8990363547948754"><path id="ProcessOnPath1048" d="M12.0 3.8990363547948754L0.0 7.798072709589751V0.0Z" stroke="#323232" stroke-width="2.0" fill="#323232" transform="matrix(1.0,0.0,0.0,1.0,0.0,0.0)"/></marker><marker id="ProcessOnMarker1055" markerUnits="userSpaceOnUse" orient="auto" markerWidth="16.23606797749979" markerHeight="10.550836550532098" viewBox="-1.0 -1.3763819204711736 16.23606797749979 10.550836550532098" refX="-1.0" refY="3.8990363547948754"><path id="ProcessOnPath1056" d="M12.0 3.8990363547948754L0.0 7.798072709589751V0.0Z" stroke="#323232" stroke-width="2.0" fill="#323232" transform="matrix(1.0,0.0,0.0,1.0,0.0,0.0)"/></marker><marker id="ProcessOnMarker1099" markerUnits="userSpaceOnUse" orient="auto" markerWidth="16.23606797749979" markerHeight="10.550836550532098" viewBox="-1.0 -1.3763819204711736 16.23606797749979 10.550836550532098" refX="-1.0" refY="3.8990363547948754"><path id="ProcessOnPath1100" d="M12.0 3.8990363547948754L0.0 7.798072709589751V0.0Z" stroke="#323232" stroke-width="2.0" fill="#323232" transform="matrix(1.0,0.0,0.0,1.0,0.0,0.0)"/></marker></defs><g id="ProcessOnG1002"><path id="ProcessOnPath1003" d="M21.0 213.0H1028.0V871.0H21.0V213.0Z" fill="none"/><g id="ProcessOnG1004"><g id="ProcessOnG1005" transform="matrix(1.0,0.0,0.0,1.0,140.0,646.0)" opacity="1.0"><path id="ProcessOnPath1006" d="M0.0 18.48L203.0 18.48L203.0 0.0L231.0 28.0L203.0 56.0L203.0 37.52L0.0 37.52L0.0 18.48Z" stroke="#323232" stroke-width="2.0" stroke-dasharray="none" opacity="1.0" fill="#ffffff"/></g><g id="ProcessOnG1007" transform="matrix(1.0,0.0,0.0,1.0,165.0,614.0)" opacity="1.0"><path id="ProcessOnPath1008" d="M0.0 0.0L168.0 0.0L168.0 42.0L0.0 42.0Z" stroke="none" stroke-width="0.0" stroke-dasharray="none" opacity="1.0" fill="none"/><g id="ProcessOnG1009" transform="matrix(1.0,0.0,0.0,1.0,0.0,12.875)"><text id="ProcessOnText1010" fill="#000000" font-size="13" x="83.0" y="13.325" font-family="微软雅黑" font-weight="normal" font-style="normal" text-decoration="none" family="微软雅黑" text-anchor="middle" size="13">主角技能操作</text></g></g><g id="ProcessOnG1011" transform="matrix(1.0,0.0,0.0,1.0,645.0,241.0)" opacity="1.0"><path id="ProcessOnPath1012" d="M0.0 0.0L54.0 0.0L54.0 41.0L0.0 41.0Z" stroke="none" stroke-width="0.0" stroke-dasharray="none" opacity="1.0" fill="none"/><g id="ProcessOnG1013" transform="matrix(1.0,0.0,0.0,1.0,0.0,12.375)"><text id="ProcessOnText1014" fill="#000000" font-size="13" x="26.0" y="13.325" font-family="微软雅黑" font-weight="normal" font-style="normal" text-decoration="none" family="微软雅黑" text-anchor="middle" size="13">怪物AI</text></g></g><g id="ProcessOnG1015" transform="matrix(1.0,0.0,0.0,1.0,699.0,233.0)" opacity="1.0"><path id="ProcessOnPath1016" d="M19.8 0.0L40.2 0.0L40.2 60.0L60.0 60.0L30.0 90.0L0.0 60.0L19.8 60.0L19.8 0.0Z" stroke="#323232" stroke-width="2.0" stroke-dasharray="none" opacity="1.0" fill="#ffffff"/></g><g id="ProcessOnG1017" transform="matrix(1.0,0.0,0.0,1.0,690.0,256.0)" opacity="1.0"><path id="ProcessOnPath1018" d="M0.0 0.0L132.0 0.0L132.0 28.0L0.0 28.0Z" stroke="none" stroke-width="0.0" stroke-dasharray="none" opacity="1.0" fill="none"/><g id="ProcessOnG1019" transform="matrix(1.0,0.0,0.0,1.0,0.0,5.875)"><text id="ProcessOnText1020" fill="#000000" font-size="13" x="65.0" y="13.325" font-family="微软雅黑" font-weight="normal" font-style="normal" text-decoration="none" family="微软雅黑" text-anchor="middle" size="13">网络</text></g></g><g id="ProcessOnG1021"><path id="ProcessOnPath1022" d="M753.0 382.0L846.5 382.0L846.5 382.0L924.7639320225002 382.0" stroke="#323232" stroke-width="2.0" stroke-dasharray="none" fill="none" marker-end="url(#ProcessOnMarker1023)"/></g><g id="ProcessOnG1025" transform="matrix(1.0,0.0,0.0,1.0,780.0,346.0)" opacity="1.0"><path id="ProcessOnPath1026" d="M0.0 0.0L142.0 0.0L142.0 25.0L0.0 25.0Z" stroke="none" stroke-width="0.0" stroke-dasharray="none" opacity="1.0" fill="none"/><g id="ProcessOnG1027" transform="matrix(1.0,0.0,0.0,1.0,0.0,4.375)"><text id="ProcessOnText1028" fill="#000000" font-size="13" x="70.0" y="13.325" font-family="微软雅黑" font-weight="normal" font-style="normal" text-decoration="none" family="微软雅黑" text-anchor="middle" size="13">动画</text></g></g><g id="ProcessOnG1029"><path id="ProcessOnPath1030" d="M755.0 432.0L854.0 432.0L854.0 432.0L937.7639320225002 432.0" stroke="#323232" stroke-width="2.0" stroke-dasharray="none" fill="none" marker-end="url(#ProcessOnMarker1031)"/></g><g id="ProcessOnG1033" transform="matrix(1.0,0.0,0.0,1.0,792.0,396.0)" opacity="1.0"><path id="ProcessOnPath1034" d="M0.0 0.0L116.0 0.0L116.0 22.0L0.0 22.0Z" stroke="none" stroke-width="0.0" stroke-dasharray="none" opacity="1.0" fill="none"/><g id="ProcessOnG1035" transform="matrix(1.0,0.0,0.0,1.0,0.0,2.875)"><text id="ProcessOnText1036" fill="#000000" font-size="13" x="57.0" y="13.325" font-family="微软雅黑" font-weight="normal" font-style="normal" text-decoration="none" family="微软雅黑" text-anchor="middle" size="13">特效</text></g></g><g id="ProcessOnG1037"><path id="ProcessOnPath1038" d="M753.0 706.0L786.0 706.0L786.0 789.0L733.0 789.0L733.0 770.2360679774998" stroke="#323232" stroke-width="2.0" stroke-dasharray="none" fill="none" marker-end="url(#ProcessOnMarker1039)"/></g><g id="ProcessOnG1041" transform="matrix(1.0,0.0,0.0,1.0,793.0,720.0)" opacity="1.0"><path id="ProcessOnPath1042" d="M0.0 0.0L49.0 0.0L49.0 49.0L0.0 49.0Z" stroke="none" stroke-width="0.0" stroke-dasharray="none" opacity="1.0" fill="none"/><g id="ProcessOnG1043" transform="matrix(1.0,0.0,0.0,1.0,0.0,16.375)"><text id="ProcessOnText1044" fill="#000000" font-size="13" x="23.5" y="13.325" font-family="微软雅黑" font-weight="normal" font-style="normal" text-decoration="none" family="微软雅黑" text-anchor="middle" size="13">Buff</text></g></g><g id="ProcessOnG1045"><path id="ProcessOnPath1046" d="M753.0 613.0L864.0 613.0L864.0 822.0L646.0 822.0L646.0 774.2360679774998" stroke="#323232" stroke-width="2.0" stroke-dasharray="none" fill="none" marker-end="url(#ProcessOnMarker1047)"/></g><g id="ProcessOnG1049" transform="matrix(1.0,0.0,0.0,1.0,956.0,684.0)" opacity="1.0"><path id="ProcessOnPath1050" d="M0.0 0.0L52.0 0.0L52.0 91.0L0.0 91.0Z" stroke="none" stroke-width="0.0" stroke-dasharray="none" opacity="1.0" fill="none"/><g id="ProcessOnG1051" transform="matrix(1.0,0.0,0.0,1.0,0.0,37.375)"><text id="ProcessOnText1052" fill="#000000" font-size="13" x="25.0" y="13.325" font-family="微软雅黑" font-weight="normal" font-style="normal" text-decoration="none" family="微软雅黑" text-anchor="middle" size="13">弹道</text></g></g><g id="ProcessOnG1053"><path id="ProcessOnPath1054" d="M753.0 491.0L945.0 491.0L945.0 851.0L405.0 851.0L405.0 774.2360679774998" stroke="#323232" stroke-width="2.0" stroke-dasharray="none" fill="none" marker-end="url(#ProcessOnMarker1055)"/></g><g id="ProcessOnG1057" transform="matrix(1.0,0.0,0.0,1.0,867.0,678.0)" opacity="1.0"><path id="ProcessOnPath1058" d="M0.0 0.0L52.0 0.0L52.0 91.0L0.0 91.0Z" stroke="none" stroke-width="0.0" stroke-dasharray="none" opacity="1.0" fill="none"/><g id="ProcessOnG1059" transform="matrix(1.0,0.0,0.0,1.0,0.0,37.375)"><text id="ProcessOnText1060" fill="#000000" font-size="13" x="25.0" y="13.325" font-family="微软雅黑" font-weight="normal" font-style="normal" text-decoration="none" family="微软雅黑" text-anchor="middle" size="13">法术场</text></g></g><g id="ProcessOnG1061" transform="matrix(1.0,0.0,0.0,1.0,371.0,531.0)" opacity="1.0"><path id="ProcessOnPath1062" d="M0.0 0.0L113.0 0.0L113.0 224.0L0.0 224.0Z" stroke="#323232" stroke-width="2.0" stroke-dasharray="none" opacity="1.0" fill="#ffffff"/><g id="ProcessOnG1063" transform="matrix(1.0,0.0,0.0,1.0,10.0,74.5)"><text id="ProcessOnText1064" fill="#000000" font-size="30" x="45.5" y="30.75" font-family="微软雅黑" font-weight="normal" font-style="normal" text-decoration="none" family="微软雅黑" text-anchor="middle" size="30">合法性</text><text id="ProcessOnText1065" fill="#000000" font-size="30" x="45.5" y="68.25" font-family="微软雅黑" font-weight="normal" font-style="normal" text-decoration="none" family="微软雅黑" text-anchor="middle" size="30">检查</text></g></g><g id="ProcessOnG1066" transform="matrix(1.0,0.0,0.0,1.0,346.0,237.0)" opacity="1.0"><path id="ProcessOnPath1067" d="M0.0 0.0L250.0 0.0L250.0 61.0L0.0 61.0Z" stroke="none" stroke-width="0.0" stroke-dasharray="none" opacity="1.0" fill="none"/><g id="ProcessOnG1068" transform="matrix(1.0,0.0,0.0,1.0,0.0,11.75)"><text id="ProcessOnText1069" fill="#000000" font-size="30" x="124.0" y="30.75" font-family="微软雅黑" font-weight="normal" font-style="normal" text-decoration="none" family="微软雅黑" text-anchor="middle" size="30">技能系统</text></g></g><g id="ProcessOnG1070" transform="matrix(1.0,0.0,0.0,1.0,614.0,323.0)" opacity="1.0"><path id="ProcessOnPath1071" d="M0.0 0.0L142.0 0.0L142.0 432.0L0.0 432.0Z" stroke="#323232" stroke-width="2.0" stroke-dasharray="none" opacity="1.0" fill="#ffffff"/><g id="ProcessOnG1072" transform="matrix(1.0,0.0,0.0,1.0,10.0,178.5)"><text id="ProcessOnText1073" fill="#000000" font-size="30" x="60.0" y="30.75" font-family="微软雅黑" font-weight="normal" font-style="normal" text-decoration="none" family="微软雅黑" text-anchor="middle" size="30">技能施放</text><text id="ProcessOnText1074" fill="#000000" font-size="30" x="60.0" y="68.25" font-family="微软雅黑" font-weight="normal" font-style="normal" text-decoration="none" family="微软雅黑" text-anchor="middle" size="30">流程</text></g></g><g id="ProcessOnG1075" transform="matrix(1.0,0.0,0.0,1.0,484.0,629.0)" opacity="1.0"><path id="ProcessOnPath1076" d="M0.0 19.14L101.0 19.14L101.0 0.0L130.0 29.0L101.0 58.0L101.0 38.86L0.0 38.86L0.0 19.14Z" stroke="#323232" stroke-width="2.0" stroke-dasharray="none" opacity="1.0" fill="#ffffff"/></g><g id="ProcessOnG1077" transform="matrix(1.0,0.0,0.0,1.0,498.0,603.0)" opacity="1.0"><path id="ProcessOnPath1078" d="M0.0 0.0L61.0 0.0L61.0 33.0L0.0 33.0Z" stroke="none" stroke-width="0.0" stroke-dasharray="none" opacity="1.0" fill="none"/><g id="ProcessOnG1079" transform="matrix(1.0,0.0,0.0,1.0,0.0,8.375)"><text id="ProcessOnText1080" fill="#000000" font-size="13" x="29.5" y="13.325" font-family="微软雅黑" font-weight="normal" font-style="normal" text-decoration="none" family="微软雅黑" text-anchor="middle" size="13">合法</text></g></g><g id="ProcessOnG1081" transform="matrix(1.0,0.0,0.0,1.0,602.0,233.0)" opacity="1.0"><path id="ProcessOnPath1082" d="M19.8 0.0L40.2 0.0L40.2 60.0L60.0 60.0L30.0 90.0L0.0 60.0L19.8 60.0L19.8 0.0Z" stroke="#323232" stroke-width="2.0" stroke-dasharray="none" opacity="1.0" fill="#ffffff"/></g><g id="ProcessOnG1083" transform="matrix(1.0,0.0,0.0,1.0,41.0,330.0)" opacity="1.0"><path id="ProcessOnPath1084" d="M0.0 18.48L203.0 18.48L203.0 0.0L231.0 28.0L203.0 56.0L203.0 37.52L0.0 37.52L0.0 18.48Z" stroke="#323232" stroke-width="2.0" stroke-dasharray="none" opacity="1.0" fill="#ffffff"/></g><g id="ProcessOnG1085" transform="matrix(1.0,0.0,0.0,1.0,66.0,298.0)" opacity="1.0"><path id="ProcessOnPath1086" d="M0.0 0.0L168.0 0.0L168.0 42.0L0.0 42.0Z" stroke="none" stroke-width="0.0" stroke-dasharray="none" opacity="1.0" fill="none"/><g id="ProcessOnG1087" transform="matrix(1.0,0.0,0.0,1.0,0.0,12.875)"><text id="ProcessOnText1088" fill="#000000" font-size="13" x="83.0" y="13.325" font-family="微软雅黑" font-weight="normal" font-style="normal" text-decoration="none" family="微软雅黑" text-anchor="middle" size="13">主角运动操作</text></g></g><g id="ProcessOnG1089" transform="matrix(1.0,0.0,0.0,1.0,272.0,326.0)" opacity="1.0"><path id="ProcessOnPath1090" d="M0.0 0.0L212.0 0.0L212.0 55.0L0.0 55.0Z" stroke="#323232" stroke-width="2.0" stroke-dasharray="none" opacity="1.0" fill="#ffffff"/><g id="ProcessOnG1091" transform="matrix(1.0,0.0,0.0,1.0,10.0,15.0)"><text id="ProcessOnText1092" fill="#000000" font-size="20" x="95.0" y="20.5" font-family="微软雅黑" font-weight="normal" font-style="normal" text-decoration="none" family="微软雅黑" text-anchor="middle" size="20">Locomotion状态机</text></g></g><g id="ProcessOnG1093" transform="matrix(1.0,0.0,0.0,1.0,272.0,422.0)" opacity="1.0"><path id="ProcessOnPath1094" d="M0.0 0.0L212.0 0.0L212.0 55.0L0.0 55.0Z" stroke="#323232" stroke-width="2.0" stroke-dasharray="none" opacity="1.0" fill="#ffffff"/><g id="ProcessOnG1095" transform="matrix(1.0,0.0,0.0,1.0,10.0,15.0)"><text id="ProcessOnText1096" fill="#000000" font-size="20" x="95.0" y="20.5" font-family="微软雅黑" font-weight="normal" font-style="normal" text-decoration="none" family="微软雅黑" text-anchor="middle" size="20">技能状态状态机</text></g></g><g id="ProcessOnG1097"><path id="ProcessOnPath1098" d="M614.0 448.0L553.0 448.0L553.0 448.0L507.2360679774998 448.0" stroke="#323232" stroke-width="2.0" stroke-dasharray="none" fill="none" marker-end="url(#ProcessOnMarker1099)"/></g><g id="ProcessOnG1101" transform="matrix(1.0,0.0,0.0,1.0,513.0,414.0)" opacity="1.0"><path id="ProcessOnPath1102" d="M0.0 0.0L89.0 0.0L89.0 22.0L0.0 22.0Z" stroke="none" stroke-width="0.0" stroke-dasharray="none" opacity="1.0" fill="none"/><g id="ProcessOnG1103" transform="matrix(1.0,0.0,0.0,1.0,0.0,2.875)"><text id="ProcessOnText1104" fill="#000000" font-size="13" x="43.5" y="13.325" font-family="微软雅黑" font-weight="normal" font-style="normal" text-decoration="none" family="微软雅黑" text-anchor="middle" size="13">技能状态改变</text></g></g></g></g></svg>