<svg xmlns="http://www.w3.org/2000/svg" xmlns:xlink="http://www.w3.org/1999/xlink" id="processonSvg1000" viewBox="80.0 121.0 1210.0 453.0" width="1210.0" height="453.0"><defs id="ProcessOnDefs1001"/><g id="ProcessOnG1002"><path id="ProcessOnPath1003" d="M80.0 121.0H1290.0V574.0H80.0V121.0Z" fill="none"/><g id="ProcessOnG1004"><g id="ProcessOnG1005" transform="matrix(1.0,0.0,0.0,1.0,313.0,195.0)" opacity="1.0"><path id="ProcessOnPath1006" d="M0.0 0.0L719.0 0.0L719.0 359.0L0.0 359.0Z" stroke="#323232" stroke-width="2.0" stroke-dasharray="none" opacity="1.0" fill="#ffffff"/></g><g id="ProcessOnG1007" transform="matrix(1.0,0.0,0.0,1.0,108.0,353.0)" opacity="1.0"><path id="ProcessOnPath1008" d="M0.0 17.16L174.0 17.16L174.0 0.0L200.0 26.0L174.0 52.0L174.0 34.84L0.0 34.84L0.0 17.16Z" stroke="#323232" stroke-width="2.0" stroke-dasharray="none" opacity="1.0" fill="#ffffff"/></g><g id="ProcessOnG1009" transform="matrix(1.0,0.0,0.0,1.0,100.0,330.0)" opacity="1.0"><path id="ProcessOnPath1010" d="M0.0 0.0L160.0 0.0L160.0 39.0L0.0 39.0Z" stroke="none" stroke-width="0.0" stroke-dasharray="none" opacity="1.0" fill="none"/><g id="ProcessOnG1011" transform="matrix(1.0,0.0,0.0,1.0,0.0,11.375)"><text id="ProcessOnText1012" fill="#000000" font-size="13" x="79.0" y="13.325" font-family="微软雅黑" font-weight="normal" font-style="normal" text-decoration="none" family="微软雅黑" text-anchor="middle" size="13">技能请求</text></g></g><g id="ProcessOnG1013" transform="matrix(1.0,0.0,0.0,1.0,1036.0,369.0)" opacity="1.0"><path id="ProcessOnPath1014" d="M0.0 18.48L206.0 18.48L206.0 0.0L234.0 28.0L206.0 56.0L206.0 37.52L0.0 37.52L0.0 18.48Z" stroke="#323232" stroke-width="2.0" stroke-dasharray="none" opacity="1.0" fill="#ffffff"/></g><g id="ProcessOnG1015" transform="matrix(1.0,0.0,0.0,1.0,1043.0,358.0)" opacity="1.0"><path id="ProcessOnPath1016" d="M0.0 0.0L174.0 0.0L174.0 20.0L0.0 20.0Z" stroke="none" stroke-width="0.0" stroke-dasharray="none" opacity="1.0" fill="none"/><g id="ProcessOnG1017" transform="matrix(1.0,0.0,0.0,1.0,0.0,1.875)"><text id="ProcessOnText1018" fill="#000000" font-size="13" x="86.0" y="13.325" font-family="微软雅黑" font-weight="normal" font-style="normal" text-decoration="none" family="微软雅黑" text-anchor="middle" size="13">正确的播放动画，特效</text></g></g><g id="ProcessOnG1019" transform="matrix(1.0,0.0,0.0,1.0,345.0,224.0)" opacity="1.0"><path id="ProcessOnPath1020" d="M0.0 0.0L131.0 0.0L131.0 279.0L0.0 279.0Z" stroke="#323232" stroke-width="2.0" stroke-dasharray="none" opacity="1.0" fill="#ffffff"/><g id="ProcessOnG1021" transform="matrix(1.0,0.0,0.0,1.0,10.0,102.0)"><text id="ProcessOnText1022" fill="#000000" font-size="30" x="54.5" y="30.75" font-family="微软雅黑" font-weight="normal" font-style="normal" text-decoration="none" family="微软雅黑" text-anchor="middle" size="30">请求是</text><text id="ProcessOnText1023" fill="#000000" font-size="30" x="54.5" y="68.25" font-family="微软雅黑" font-weight="normal" font-style="normal" text-decoration="none" family="微软雅黑" text-anchor="middle" size="30">否合法</text></g></g><g id="ProcessOnG1024" transform="matrix(1.0,0.0,0.0,1.0,596.0,223.0)" opacity="1.0"><path id="ProcessOnPath1025" d="M0.0 0.0L346.0 0.0L346.0 281.0L0.0 281.0Z" stroke="#323232" stroke-width="2.0" stroke-dasharray="none" opacity="1.0" fill="#ffffff"/></g><g id="ProcessOnG1026" transform="matrix(1.0,0.0,0.0,1.0,619.0,240.0)" opacity="1.0"><path id="ProcessOnPath1027" d="M0.0 0.0L300.0 0.0L300.0 79.0L0.0 79.0Z" stroke="#323232" stroke-width="2.0" stroke-dasharray="none" opacity="1.0" fill="#ffffff"/><g id="ProcessOnG1028" transform="matrix(1.0,0.0,0.0,1.0,10.0,20.75)"><text id="ProcessOnText1029" fill="#000000" font-size="30" x="139.0" y="30.75" font-family="微软雅黑" font-weight="normal" font-style="normal" text-decoration="none" family="微软雅黑" text-anchor="middle" size="30">动画</text></g></g><g id="ProcessOnG1030" transform="matrix(1.0,0.0,0.0,1.0,626.0,358.0)" opacity="1.0"><path id="ProcessOnPath1031" d="M0.0 0.0L293.0 0.0L293.0 78.0L0.0 78.0Z" stroke="#323232" stroke-width="2.0" stroke-dasharray="none" opacity="1.0" fill="#ffffff"/><g id="ProcessOnG1032" transform="matrix(1.0,0.0,0.0,1.0,10.0,20.25)"><text id="ProcessOnText1033" fill="#000000" font-size="30" x="135.5" y="30.75" font-family="微软雅黑" font-weight="normal" font-style="normal" text-decoration="none" family="微软雅黑" text-anchor="middle" size="30">特效</text></g></g><g id="ProcessOnG1034" transform="matrix(1.0,0.0,0.0,1.0,492.0,349.0)" opacity="1.0"><path id="ProcessOnPath1035" d="M0.0 19.8L60.0 19.8L60.0 0.0L90.0 30.0L60.0 60.0L60.0 40.2L0.0 40.2L0.0 19.8Z" stroke="#323232" stroke-width="2.0" stroke-dasharray="none" opacity="1.0" fill="#ffffff"/><g id="ProcessOnG1036" transform="matrix(1.0,0.0,0.0,1.0,0.0,21.875)"><text id="ProcessOnText1037" fill="#000000" font-size="13" x="44.0" y="13.325" font-family="微软雅黑" font-weight="normal" font-style="normal" text-decoration="none" family="微软雅黑" text-anchor="middle" size="13">合法</text></g></g><g id="ProcessOnG1038" transform="matrix(1.0,0.0,0.0,1.0,431.0,141.0)" opacity="1.0"><path id="ProcessOnPath1039" d="M0.0 0.0L512.0 0.0L512.0 45.0L0.0 45.0Z" stroke="none" stroke-width="0.0" stroke-dasharray="none" opacity="1.0" fill="none"/><g id="ProcessOnG1040" transform="matrix(1.0,0.0,0.0,1.0,0.0,10.0)"><text id="ProcessOnText1041" fill="#000000" font-size="20" x="255.0" y="20.5" font-family="微软雅黑" font-weight="normal" font-style="normal" text-decoration="none" family="微软雅黑" text-anchor="middle" size="20">技能系统</text></g></g></g></g></svg>