<svg xmlns="http://www.w3.org/2000/svg" xmlns:xlink="http://www.w3.org/1999/xlink" id="processonSvg1000" viewBox="238.0 184.0 923.0 328.0" width="923.0" height="328.0"><defs id="ProcessOnDefs1001"/><g id="ProcessOnG1002"><path id="ProcessOnPath1003" d="M238.0 184.0H1161.0V512.0H238.0V184.0Z" fill="none"/><g id="ProcessOnG1004"><g id="ProcessOnG1005" transform="matrix(1.0,0.0,0.0,1.0,466.0,204.0)" opacity="1.0"><path id="ProcessOnPath1006" d="M0.0 0.0L441.0 0.0L441.0 288.0L0.0 288.0Z" stroke="#323232" stroke-width="2.0" stroke-dasharray="none" opacity="1.0" fill="#ffffff"/><g id="ProcessOnG1007" transform="matrix(1.0,0.0,0.0,1.0,10.0,112.125)"><text id="ProcessOnText1008" fill="#000000" font-size="51" x="209.5" y="52.275000000000006" font-family="微软雅黑" font-weight="normal" font-style="normal" text-decoration="none" family="微软雅黑" text-anchor="middle" size="51">技能系统</text></g></g><g id="ProcessOnG1009" transform="matrix(1.0,0.0,0.0,1.0,266.0,322.0)" opacity="1.0"><path id="ProcessOnPath1010" d="M0.0 17.16L174.0 17.16L174.0 0.0L200.0 26.0L174.0 52.0L174.0 34.84L0.0 34.84L0.0 17.16Z" stroke="#323232" stroke-width="2.0" stroke-dasharray="none" opacity="1.0" fill="#ffffff"/></g><g id="ProcessOnG1011" transform="matrix(1.0,0.0,0.0,1.0,258.0,299.0)" opacity="1.0"><path id="ProcessOnPath1012" d="M0.0 0.0L160.0 0.0L160.0 39.0L0.0 39.0Z" stroke="none" stroke-width="0.0" stroke-dasharray="none" opacity="1.0" fill="none"/><g id="ProcessOnG1013" transform="matrix(1.0,0.0,0.0,1.0,0.0,11.375)"><text id="ProcessOnText1014" fill="#000000" font-size="13" x="79.0" y="13.325" font-family="微软雅黑" font-weight="normal" font-style="normal" text-decoration="none" family="微软雅黑" text-anchor="middle" size="13">技能请求</text></g></g><g id="ProcessOnG1015" transform="matrix(1.0,0.0,0.0,1.0,907.0,349.0)" opacity="1.0"><path id="ProcessOnPath1016" d="M0.0 18.48L206.0 18.48L206.0 0.0L234.0 28.0L206.0 56.0L206.0 37.52L0.0 37.52L0.0 18.48Z" stroke="#323232" stroke-width="2.0" stroke-dasharray="none" opacity="1.0" fill="#ffffff"/></g><g id="ProcessOnG1017" transform="matrix(1.0,0.0,0.0,1.0,914.0,338.0)" opacity="1.0"><path id="ProcessOnPath1018" d="M0.0 0.0L174.0 0.0L174.0 20.0L0.0 20.0Z" stroke="none" stroke-width="0.0" stroke-dasharray="none" opacity="1.0" fill="none"/><g id="ProcessOnG1019" transform="matrix(1.0,0.0,0.0,1.0,0.0,1.875)"><text id="ProcessOnText1020" fill="#000000" font-size="13" x="86.0" y="13.325" font-family="微软雅黑" font-weight="normal" font-style="normal" text-decoration="none" family="微软雅黑" text-anchor="middle" size="13">正确的播放动画，特效</text></g></g></g></g></svg>